<svg width="1440" height="527" viewBox="0 0 1440 527" fill="none" xmlns="http://www.w3.org/2000/svg">
<path d="M262 82H351.014V166.418H393V527H262V82Z" fill="#F2AF51" fill-opacity="0.4"/>
<path opacity="0.9" d="M1125 433C1125 425.734 1125 69 1125 69H1212V431.768L1125 433Z" fill="#F2AF51" fill-opacity="0.5"/>
<path d="M1030.38 161.35V228.835H971.485V350.537H900.766V107.432H836.937V353.331H781.148V208.185L659.647 154.9V372.364H584.304V107.432H526.631V0H462.434V268.482H375.843V352.523H229.958V191.665H111.092V339.482H74.5178V253.21L0 208.185V527L122.12 526.93L836.937 527H900.766V525.875H1104V161.35H1030.38Z" fill="url(#paint0_linear_138_2)" fill-opacity="0.5"/>
<path d="M1107.62 161.35V228.835H1166.52V350.537H1237.23V107.432H1301.06V353.331H1356.85V208.185L1478.35 154.9V372.364H1553.7V107.432H1611.37V0H1675.57V268.482H1762.16V352.523H1908.04V191.665H2026.91V339.482H2063.48V253.21L2138 208.185V527L2015.88 526.93L1301.06 527H1237.23V525.875H1034V161.35H1107.62Z" fill="url(#paint1_linear_138_2)" fill-opacity="0.5"/>
<defs>
<linearGradient id="paint0_linear_138_2" x1="552" y1="0" x2="552" y2="527" gradientUnits="userSpaceOnUse">
<stop stop-color="#FFF386"/>
<stop offset="1" stop-color="#FFE486"/>
</linearGradient>
<linearGradient id="paint1_linear_138_2" x1="1586" y1="0" x2="1586" y2="527" gradientUnits="userSpaceOnUse">
<stop stop-color="#FFF386"/>
<stop offset="1" stop-color="#FFE486"/>
</linearGradient>
</defs>
</svg>
