<svg width="641" height="385" viewBox="0 0 641 385" fill="none" xmlns="http://www.w3.org/2000/svg">
<path d="M92.2988 20.644H46.9443V36.5963H92.2988V20.644Z" fill="#5E5E5E"/>
<path d="M184.102 25.8572H144.169V38.5512H184.102V25.8572Z" fill="#5E5E5E"/>
<path d="M193.538 5.57803H134.734L139.765 0H188.508L193.538 5.57803Z" fill="#5E5E5E"/>
<path d="M632.173 1.85071H225.782L193.069 31.7221H8.39318C6.16717 31.7221 4.03233 32.6063 2.4583 34.1804C0.884276 35.7544 0 37.8892 0 40.1152V376.468C0 378.694 0.884276 380.829 2.4583 382.403C4.03233 383.977 6.16717 384.861 8.39318 384.861H632.173C634.399 384.861 636.534 383.977 638.108 382.403C639.682 380.829 640.566 378.694 640.566 376.468V10.27C640.566 8.04157 639.683 5.90404 638.11 4.32587C636.536 2.74771 634.401 1.85761 632.173 1.85071Z" fill="#5E5E5E"/>
<path opacity="0.6" d="M632.173 1.85071H225.782L193.069 31.7221H8.39318C6.16717 31.7221 4.03233 32.6063 2.4583 34.1804C0.884276 35.7544 0 37.8892 0 40.1152V376.468C0 378.694 0.884276 380.829 2.4583 382.403C4.03233 383.977 6.16717 384.861 8.39318 384.861H632.173C634.399 384.861 636.534 383.977 638.108 382.403C639.682 380.829 640.566 378.694 640.566 376.468V10.27C640.566 8.04157 639.683 5.90404 638.11 4.32587C636.536 2.74771 634.401 1.85761 632.173 1.85071Z" fill="white"/>
<path d="M640.566 97.2253H0V370.238H640.566V97.2253Z" fill="#5E5E5E"/>
<path opacity="0.2" d="M640.566 10.27V376.468C640.559 378.692 639.673 380.823 638.1 382.395C636.528 383.968 634.397 384.854 632.173 384.861H531.559C533.783 384.854 535.914 383.968 537.486 382.395C539.059 380.823 539.945 378.692 539.952 376.468V10.27C539.952 8.04157 539.069 5.90404 537.496 4.32587C535.922 2.74771 533.787 1.85761 531.559 1.85071H632.173C634.401 1.85761 636.536 2.74771 638.109 4.32587C639.683 5.90404 640.566 8.04157 640.566 10.27Z" fill="black"/>
<path d="M492.903 16.8906H419.242C414.851 16.8906 411.292 20.45 411.292 24.8407V77.5978C411.292 81.9885 414.851 85.5479 419.242 85.5479H492.903C497.294 85.5479 500.853 81.9885 500.853 77.5978V24.8407C500.853 20.45 497.294 16.8906 492.903 16.8906Z" fill="#263238"/>
<path opacity="0.4" d="M488.655 20.644H423.36C419.459 20.644 416.296 23.8067 416.296 27.7079V74.4699C416.296 78.3712 419.459 81.5337 423.36 81.5337H488.655C492.556 81.5337 495.718 78.3712 495.718 74.4699V27.7079C495.718 23.8067 492.556 20.644 488.655 20.644Z" fill="black"/>
<path opacity="0.4" d="M487.508 29.8713H440.85C438.057 29.8713 435.793 32.1353 435.793 34.9281V68.3444C435.793 71.1372 438.057 73.4012 440.85 73.4012H487.508C490.301 73.4012 492.565 71.1372 492.565 68.3444V34.9281C492.565 32.1353 490.301 29.8713 487.508 29.8713Z" fill="black"/>
<path opacity="0.2" d="M439.234 61.9322V38.2645C439.234 37.1515 439.677 36.0842 440.464 35.2971C441.251 34.5101 442.318 34.068 443.431 34.068H472.103C472.103 34.068 461.104 54.7381 439.234 61.9322Z" fill="white"/>
<path opacity="0.4" d="M327.829 16.7603H274.29C271.67 16.7603 269.546 18.8842 269.546 21.5042V29.2197C269.546 31.8397 271.67 33.9637 274.29 33.9637H327.829C330.449 33.9637 332.573 31.8397 332.573 29.2197V21.5042C332.573 18.8842 330.449 16.7603 327.829 16.7603Z" fill="black"/>
<path opacity="0.6" d="M328.663 20.7483H273.456V29.9495H328.663V20.7483Z" fill="white"/>
<path opacity="0.4" d="M237.85 34.068C242.63 34.068 246.504 30.1935 246.504 25.4141C246.504 20.6347 242.63 16.7603 237.85 16.7603C233.071 16.7603 229.196 20.6347 229.196 25.4141C229.196 30.1935 233.071 34.068 237.85 34.068Z" fill="black"/>
<path opacity="0.3" d="M162.963 92.5856C162.32 92.5856 161.669 92.5335 161.008 92.4292C160.143 92.5313 159.273 92.5835 158.402 92.5856H157.88C152.186 92.3873 146.767 90.0887 142.666 86.1327C138.566 82.1766 136.074 76.843 135.672 71.1595C135.313 65.8566 136.817 60.5949 139.925 56.2831C143.033 51.9714 147.549 48.8803 152.693 47.5439V42.3308C152.7 40.7844 153.317 39.3032 154.411 38.2097C155.504 37.1162 156.986 36.4989 158.532 36.4921H163.563C165.109 36.4989 166.59 37.1162 167.684 38.2097C168.777 39.3032 169.394 40.7844 169.401 42.3308V47.5439C174.802 48.9412 179.506 52.263 182.63 56.8847C185.754 61.5065 187.082 67.1101 186.365 72.6422C185.647 78.1743 182.934 83.254 178.736 86.9265C174.537 90.599 169.141 92.6115 163.563 92.5856H162.963Z" fill="black"/>
<path d="M166.926 49.5771V42.2787C166.926 41.4007 166.577 40.5587 165.956 39.9379C165.335 39.317 164.493 38.9683 163.615 38.9683H158.585C157.707 38.9683 156.865 39.317 156.244 39.9379C155.623 40.5587 155.274 41.4007 155.274 42.2787V49.5771C150.277 50.3894 145.763 53.0344 142.611 56.996C139.459 60.9576 137.896 65.9515 138.227 71.0031C138.602 76.0527 140.824 80.7873 144.468 84.3022C148.113 87.8172 152.925 89.866 157.985 90.0572C159.004 90.0844 160.024 90.0322 161.035 89.9008C161.691 89.9927 162.353 90.045 163.016 90.0572C168.175 90.1956 173.195 88.3717 177.062 84.9537C180.929 81.5356 183.355 76.7779 183.851 71.6408C184.348 66.5036 182.877 61.3694 179.735 57.2744C176.594 53.1795 172.016 50.4286 166.926 49.5771Z" fill="#5E5E5E"/>
<path opacity="0.4" d="M166.926 49.5771V42.2787C166.926 41.4007 166.577 40.5587 165.956 39.9379C165.335 39.317 164.493 38.9683 163.615 38.9683H158.585C157.707 38.9683 156.865 39.317 156.244 39.9379C155.623 40.5587 155.274 41.4007 155.274 42.2787V49.5771C150.277 50.3894 145.763 53.0344 142.611 56.996C139.459 60.9576 137.896 65.9515 138.227 71.0031C138.602 76.0527 140.824 80.7873 144.468 84.3022C148.113 87.8172 152.925 89.866 157.985 90.0572C159.004 90.0844 160.024 90.0322 161.035 89.9008C161.691 89.9927 162.353 90.045 163.016 90.0572C168.175 90.1956 173.195 88.3717 177.062 84.9537C180.929 81.5356 183.355 76.7779 183.851 71.6408C184.348 66.5036 182.877 61.3694 179.735 57.2744C176.594 53.1795 172.016 50.4286 166.926 49.5771Z" fill="white"/>
<path opacity="0.4" d="M161.895 49.577V42.2787C161.895 41.8439 161.809 41.4134 161.643 41.0118C161.477 40.6102 161.233 40.2452 160.925 39.9379C160.618 39.6305 160.253 39.3866 159.851 39.2203C159.45 39.0539 159.019 38.9683 158.585 38.9683C157.707 38.9683 156.865 39.317 156.244 39.9379C155.623 40.5587 155.274 41.4007 155.274 42.2787V49.577C150.277 50.3894 145.763 53.0344 142.611 56.996C139.459 60.9576 137.896 65.9515 138.227 71.0031C138.404 76.416 140.723 81.5373 144.675 85.2402C148.627 88.943 153.889 90.9242 159.301 90.748C164.714 90.5717 169.836 88.2523 173.538 84.3002C177.241 80.348 179.223 75.0867 179.046 69.6737C179.039 64.8329 177.31 60.1525 174.167 56.4704C171.025 52.7882 166.675 50.3446 161.895 49.577Z" fill="white"/>
<path opacity="0.3" d="M127.566 76.9462V61.2286C127.566 60.0769 126.632 59.1433 125.481 59.1433L66.572 59.1433C65.4204 59.1433 64.4868 60.0769 64.4868 61.2286V76.9462C64.4868 78.0979 65.4204 79.0315 66.572 79.0315H125.481C126.632 79.0315 127.566 78.0979 127.566 76.9462Z" fill="black"/>
<path d="M125.064 61.6455H67.0151V76.503H125.064V61.6455Z" fill="#5E5E5E"/>
<path opacity="0.4" d="M125.064 61.6455H67.0151V76.503H125.064V61.6455Z" fill="white"/>
<path opacity="0.6" d="M91.8559 62.4015H81.0386V75.8253H91.8559V62.4015Z" fill="white"/>
<path opacity="0.6" d="M93.3411 75.8513H98.8149V62.4275H93.3411V75.8513Z" fill="white"/>
<path opacity="0.6" d="M100.9 75.8513H105.54V62.4275H100.9V75.8513Z" fill="white"/>
<path opacity="0.6" d="M108.459 75.8513H111.613V62.4275H108.459V75.8513Z" fill="white"/>
<path opacity="0.6" d="M117.556 75.8513H119.146V62.4275H117.556V75.8513Z" fill="white"/>
<path opacity="0.6" d="M73.9745 75.8513H79.4482V62.4275H73.9745V75.8513Z" fill="white"/>
<path opacity="0.6" d="M68.188 75.8513H72.0718V62.4275H68.188V75.8513Z" fill="white"/>
<path d="M195.128 4.37903H133.17V28.3074H195.128V4.37903Z" fill="#5E5E5E"/>
<path opacity="0.4" d="M195.128 4.37903H133.17V28.3074H195.128V4.37903Z" fill="white"/>
<path opacity="0.6" d="M159.679 5.578H148.132V27.1865H159.679V5.578Z" fill="white"/>
<path opacity="0.6" d="M161.269 27.1865H167.108V5.57798H161.269V27.1865Z" fill="white"/>
<path opacity="0.6" d="M169.349 27.1865H174.302V5.57798H169.349V27.1865Z" fill="white"/>
<path opacity="0.6" d="M177.378 27.1865H180.766V5.57798H177.378V27.1865Z" fill="white"/>
<path opacity="0.6" d="M187.127 27.1865H188.821V5.57798H187.127V27.1865Z" fill="white"/>
<path opacity="0.6" d="M140.573 27.1865H146.412V5.57798H140.573V27.1865Z" fill="white"/>
<path opacity="0.6" d="M134.421 27.1865H138.565V5.57798H134.421V27.1865Z" fill="white"/>
<path d="M100.588 9.12305H38.6294V28.3074H100.588V9.12305Z" fill="#5E5E5E"/>
<path opacity="0.4" d="M100.588 9.12305H38.6294V28.3074H100.588V9.12305Z" fill="white"/>
<path opacity="0.6" d="M65.1385 10.0874H53.5913V27.4211H65.1385V10.0874Z" fill="white"/>
<path opacity="0.6" d="M66.7545 27.395H72.5933V10.0613H66.7545V27.395Z" fill="white"/>
<path opacity="0.6" d="M74.8087 27.395H79.7612V10.0613H74.8087V27.395Z" fill="white"/>
<path opacity="0.6" d="M82.8371 27.395H86.2256V10.0613H82.8371V27.395Z" fill="white"/>
<path opacity="0.6" d="M92.5855 27.395H94.2798V10.0613H92.5855V27.395Z" fill="white"/>
<path opacity="0.6" d="M46.0582 27.395H51.897V10.0613H46.0582V27.395Z" fill="white"/>
<path opacity="0.6" d="M39.8809 27.395H44.0254V10.0613H39.8809V27.395Z" fill="white"/>
<path d="M289.851 340.158C364.09 340.158 424.272 276.592 424.272 198.178C424.272 119.764 364.09 56.1978 289.851 56.1978C215.613 56.1978 155.43 119.764 155.43 198.178C155.43 276.592 215.613 340.158 289.851 340.158Z" fill="#5E5E5E"/>
<path opacity="0.2" d="M289.851 340.158C364.09 340.158 424.272 276.592 424.272 198.178C424.272 119.764 364.09 56.1978 289.851 56.1978C215.613 56.1978 155.43 119.764 155.43 198.178C155.43 276.592 215.613 340.158 289.851 340.158Z" fill="black"/>
<path d="M289.851 60.3683H239.544C167.472 60.3683 109.059 122.066 109.059 198.178C109.059 274.29 167.472 335.988 239.544 335.988H289.851C361.923 335.988 420.337 274.29 420.337 198.178C420.337 122.066 361.923 60.3683 289.851 60.3683Z" fill="#5E5E5E"/>
<path opacity="0.3" d="M289.851 60.3683H239.544C167.472 60.3683 109.059 122.066 109.059 198.178C109.059 274.29 167.472 335.988 239.544 335.988H289.851C361.923 335.988 420.337 274.29 420.337 198.178C420.337 122.066 361.923 60.3683 289.851 60.3683Z" fill="white"/>
<path opacity="0.6" d="M239.544 335.988C311.609 335.988 370.03 274.288 370.03 198.178C370.03 122.068 311.609 60.3683 239.544 60.3683C167.479 60.3683 109.059 122.068 109.059 198.178C109.059 274.288 167.479 335.988 239.544 335.988Z" fill="white"/>
<path d="M238.606 69.752H191.688C124.516 69.752 70.0908 127.253 70.0908 198.178C70.0908 269.103 124.516 326.604 191.688 326.604H238.606C305.751 326.604 360.203 269.103 360.203 198.178C360.203 127.253 305.751 69.752 238.606 69.752Z" fill="#5E5E5E"/>
<path opacity="0.3" d="M238.606 69.752H191.688C124.516 69.752 70.0908 127.253 70.0908 198.178C70.0908 269.103 124.516 326.604 191.688 326.604H238.606C305.751 326.604 360.203 269.103 360.203 198.178C360.203 127.253 305.751 69.752 238.606 69.752Z" fill="white"/>
<path opacity="0.6" d="M191.74 326.604C258.896 326.604 313.337 269.106 313.337 198.178C313.337 127.25 258.896 69.752 191.74 69.752C124.584 69.752 70.1431 127.25 70.1431 198.178C70.1431 269.106 124.584 326.604 191.74 326.604Z" fill="white"/>
<path d="M191.714 313.91C131.606 313.91 82.6025 262.065 82.6025 198.178C82.6025 134.291 131.502 82.3157 191.61 82.3157C251.717 82.3157 300.643 134.291 300.643 198.178C300.643 262.065 251.822 313.91 191.714 313.91Z" fill="#263238"/>
<path opacity="0.4" d="M198.022 313.91C195.937 313.91 193.851 314.118 191.74 314.118C131.632 314.118 82.707 262.143 82.707 198.256C82.707 134.369 131.632 82.3938 191.74 82.3938C193.851 82.3938 195.937 82.3938 198.022 82.6024C140.834 86.0691 95.2708 136.611 95.2708 198.256C95.2708 259.902 140.834 310.365 198.022 313.91Z" fill="black"/>
<path opacity="0.4" d="M199.273 296.42C148.862 296.42 107.86 252.343 107.86 198.178C107.86 144.013 148.862 99.9362 199.273 99.9362C249.684 99.9362 290.686 144.013 290.686 198.178C290.686 252.343 249.684 296.42 199.273 296.42Z" fill="black"/>
<path d="M245.644 161.165H168.568C164.45 161.165 161.113 164.502 161.113 168.619V222.706C161.113 226.823 164.45 230.161 168.568 230.161H245.644C249.761 230.161 253.099 226.823 253.099 222.706V168.619C253.099 164.502 249.761 161.165 245.644 161.165Z" fill="#263238"/>
<path opacity="0.4" d="M199.273 276.297C159.966 276.297 127.983 241.239 127.983 198.1C127.983 154.961 159.966 119.903 199.273 119.903C238.58 119.903 270.563 154.935 270.563 198.1C270.563 241.265 238.58 276.297 199.273 276.297Z" fill="black"/>
<path opacity="0.2" d="M167.238 204.616V174.823C167.238 173.15 167.902 171.546 169.085 170.363C170.268 169.18 171.873 168.515 173.546 168.515H221.429C221.429 168.515 209.282 198.074 167.238 204.616Z" fill="white"/>
</svg>
