<svg width="450" height="494" viewBox="0 0 450 494" fill="none" xmlns="http://www.w3.org/2000/svg">
<rect y="55.8953" width="334" height="387.914" rx="60" fill="#FFE97F"/>
<rect x="42" y="102.847" width="289" height="340.962" rx="60" fill="#FFD86D"/>
<rect x="83" y="150.917" width="248" height="292.892" rx="60" fill="#FFC663"/>
<path d="M434.544 193.334H445.803C443.962 191.93 441.658 191.091 439.15 191.091H157.105C142.35 191.091 130.385 202.908 130.385 217.489V234.255C130.385 248.832 142.347 260.653 157.105 260.653L435.994 260.557L434.544 193.334Z" fill="#E03268"/>
<path d="M154.044 234.255V217.488C154.044 202.908 166.006 191.091 180.764 191.091H174.707C159.952 191.091 147.988 202.908 147.988 217.488V234.255C147.988 248.832 159.949 260.652 174.707 260.652L180.684 260.649C165.964 260.606 154.044 248.807 154.044 234.255Z" fill="#FEB546"/>
<path d="M220.098 234.255V217.488C220.098 202.908 232.059 191.091 246.817 191.091H240.76C226.006 191.091 214.041 202.908 214.041 217.488V234.255C214.041 248.832 226.002 260.652 240.76 260.652L246.738 260.649C232.018 260.606 220.098 248.807 220.098 234.255Z" fill="#FEB546"/>
<path d="M274.419 191.151C260.305 191.151 248.868 202.452 248.868 216.395V235.345C248.868 249.288 260.309 260.589 274.419 260.589H450V256.35H449.273L404.637 252.175L395.616 217.209C395.616 217.209 413.027 197.884 414.164 197.389C415.3 196.89 449.273 195.379 449.273 195.379L450 195.372V191.151H274.419Z" fill="#FF5B7E"/>
<path d="M438.613 225.746C438.613 205.3 449.308 195.39 449.308 195.39H278.019C265.057 195.39 254.55 205.771 254.55 218.578V233.166C254.55 245.97 265.057 256.354 278.019 256.354H449.308C449.305 256.35 438.613 251.489 438.613 225.746Z" fill="#DAEEF7"/>
<path d="M254.547 218.578V233.166C254.547 235.083 254.788 236.944 255.229 238.727C261.007 224.763 272.079 211.311 293.158 206.988C342.368 196.89 449.305 195.393 449.305 195.393H278.016C265.054 195.39 254.547 205.774 254.547 218.578Z" fill="#DAEEF7"/>
<path d="M429.9 332.372H442.642C440.556 330.614 437.95 329.563 435.112 329.563H115.891C99.1902 329.563 85.6512 344.355 85.6512 362.605V383.592C85.6512 401.841 99.1902 416.634 115.891 416.634L431.541 416.517L429.9 332.372Z" fill="#284C7A"/>
<path d="M248.671 329.641C232.701 329.641 219.752 343.789 219.752 361.239V384.958C219.752 402.408 232.701 416.556 248.671 416.556H447.394V411.249H446.572L396.051 406.02L385.838 362.251C385.838 362.251 405.545 338.065 406.831 337.439C408.117 336.816 446.568 334.923 446.568 334.923L447.391 334.912V329.637H248.671V329.641Z" fill="#55769F"/>
<path d="M434.506 372.943C434.506 347.352 446.61 334.948 446.61 334.948H252.744C238.075 334.948 226.18 347.943 226.18 363.97V382.227C226.18 398.254 238.072 411.249 252.744 411.249H446.61C446.607 411.253 434.506 405.164 434.506 372.943Z" fill="#DAEEF7"/>
<path d="M226.177 363.971V382.227C226.177 384.626 226.45 386.957 226.952 389.186C233.491 371.705 246.02 354.871 269.876 349.458C325.572 336.82 446.607 334.944 446.607 334.944H252.741C238.072 334.948 226.177 347.94 226.177 363.971Z" fill="#DAEEF7"/>
<path d="M75.1311 262.705H62.3826C64.4682 261.311 67.0776 260.476 69.9156 260.476H389.26C405.967 260.476 419.513 272.215 419.513 286.692V303.346C419.513 317.827 405.967 329.563 389.26 329.563L73.4868 329.471L75.1311 262.705Z" fill="#02CCC0"/>
<path d="M256.429 260.536C272.406 260.536 285.361 271.762 285.361 285.61V304.429C285.361 318.277 272.41 329.503 256.429 329.503H57.6273V325.293H58.4495L108.99 321.146L119.205 286.417C119.205 286.417 99.4886 267.226 98.2029 266.731C96.9173 266.236 58.4495 264.736 58.4495 264.736L57.6273 264.729V260.543H256.429V260.536Z" fill="#06BFAD"/>
<path d="M70.5218 294.894C70.5218 274.589 58.4146 264.746 58.4146 264.746H252.357C267.032 264.746 278.93 275.056 278.93 287.775V302.26C278.93 314.979 267.032 325.289 252.357 325.289H58.4146C58.4146 325.292 70.5218 320.463 70.5218 294.894Z" fill="#DAEEF7"/>
<path d="M278.93 287.775V302.26C278.93 304.163 278.657 306.014 278.155 307.783C271.613 293.914 259.077 280.554 235.212 276.259C179.494 266.228 58.4114 264.742 58.4114 264.742H252.353C267.032 264.746 278.93 275.056 278.93 287.775Z" fill="#DAEEF7"/>
<path opacity="0.5" d="M361.011 303.346V286.692C361.011 272.215 347.466 260.476 330.759 260.476H361.084C377.791 260.476 391.336 272.215 391.336 286.692V303.346C391.336 317.827 377.791 329.563 361.084 329.563L331.162 329.552C347.682 329.368 361.011 317.707 361.011 303.346Z" fill="#55769F"/>
<path d="M51.0213 419.302H37.2792C39.5267 417.745 42.3392 416.811 45.3994 416.811H389.66C407.672 416.811 422.274 429.926 422.274 446.102V464.709C422.274 480.888 407.672 494 389.66 494L49.25 493.897L51.0213 419.302Z" fill="#FEB546"/>
<path d="M46.0533 455.269C46.0533 432.583 33 421.584 33 421.584H242.074C257.896 421.584 270.721 433.103 270.721 447.316V463.502C270.721 477.715 257.896 489.234 242.074 489.234H33C33 489.231 46.0533 483.835 46.0533 455.269Z" fill="#DAEEF7"/>
<path d="M388.605 256.086L385.471 264.408C385.212 265.096 385.471 265.901 386.049 266.209L402.413 274.943C403.596 275.574 404.742 273.976 404.028 272.685L397.695 260.935C397.698 260.939 392.691 262.028 388.605 256.086Z" fill="#55769F"/>
<path d="M367.815 256.086L364.681 264.408C364.422 265.096 364.681 265.901 365.259 266.209L381.623 274.943C382.806 275.574 383.951 273.976 383.238 272.685L376.905 260.935C376.905 260.939 371.897 262.028 367.815 256.086Z" fill="#55769F"/>
<path d="M332.465 26.6625L330.725 39.6587L327.047 22.3318C327.047 22.3318 332.2 19.3569 332.428 20.4376C332.656 21.5182 332.465 26.6625 332.465 26.6625Z" fill="#07085B"/>
<path d="M303.218 54.6303L301.627 77.0975L318.277 76.1504L316.356 56.2533L303.218 54.6303Z" fill="#FFC0BB"/>
<path d="M317.27 65.7162L316.356 56.2533L303.218 54.6303L302.667 62.4094C305.278 65.5098 309.975 68.7234 317.27 65.7162Z" fill="#F99893"/>
<path d="M327.478 39.4928C326.476 41.9577 327.009 44.7302 328.665 45.6813C330.32 46.6365 332.475 45.4101 333.478 42.9453C334.481 40.4804 333.947 37.7079 332.292 36.7568C330.633 35.8056 328.481 37.0279 327.478 39.4928Z" fill="#F99893"/>
<path d="M329.895 41.2979C329.984 40.6544 330.099 40.0189 330.229 39.3876C330.745 36.8296 330.885 34.0895 330.524 31.232C329.368 22.0403 323.155 14.7105 315.421 13.4396C305.002 11.7235 295.827 20.9111 295.178 33.0736C294.107 32.256 292.87 31.9889 291.738 32.4908C289.573 33.45 288.634 36.8458 289.644 40.0716C290.654 43.2974 293.227 45.1308 295.396 44.1716C295.695 44.038 295.97 43.8518 296.222 43.6333C296.555 54.0513 303.255 62.5793 311.804 63.0528C315.985 63.2875 319.878 61.5512 322.896 58.5116C327.006 54.9175 329.083 47.2881 329.895 41.2979Z" fill="#FFC0BB"/>
<path d="M316.927 34.5064C316.961 35.7207 316.968 36.9025 317.022 38.0641C317.087 39.1974 317.189 40.4116 317.573 41.213C317.96 41.8606 318.27 42.2734 318.28 43.0667C318.304 43.8681 317.947 44.5885 317.505 45.0257C316.597 45.9363 315.418 46.0213 314.442 45.738C315.438 45.5275 316.39 45.1228 316.944 44.3498C317.202 43.9653 317.372 43.5362 317.311 43.1315C317.27 42.6863 317.155 42.5972 316.703 41.8525C316.383 41.2049 316.281 40.5492 316.22 39.9138C316.169 39.2783 316.176 38.6591 316.227 38.0439C316.325 36.8297 316.543 35.6397 316.927 34.5064Z" fill="#F99893"/>
<path d="M311.016 35.8137C311.128 37.0724 310.196 38.0883 309.153 37.8334C308.503 37.6755 307.997 37.0117 307.929 36.2265C307.82 34.9718 308.748 33.964 309.788 34.2109C310.438 34.3688 310.944 35.0325 311.016 35.8137Z" fill="#333333"/>
<path d="M324.297 37.6027C324.405 38.8574 323.477 39.8652 322.437 39.6183C321.788 39.4645 321.282 38.8007 321.21 38.0155C321.098 36.7568 322.029 35.7449 323.073 35.9959C323.719 36.1537 324.229 36.8216 324.297 37.6027Z" fill="#333333"/>
<path d="M308.418 48.6319C308.826 49.0529 309.251 49.4455 309.7 49.7935C310.142 50.1497 310.604 50.4735 311.084 50.7487C312.039 51.2992 313.052 51.6998 314.099 51.8496C315.142 52.0075 316.206 51.8982 317.226 51.5744C318.246 51.2344 319.218 50.6759 320.136 50C319.136 50.9997 318.314 51.4975 317.318 51.9306C316.271 52.3474 315.224 52.485 314.048 52.3312C312.95 52.1613 311.889 51.7241 310.937 51.0766C309.989 50.429 309.119 49.6195 308.418 48.6319Z" fill="#F99893"/>
<path d="M312.974 31.9363C312.182 31.6449 311.44 31.4223 310.703 31.2887C309.969 31.1552 309.248 31.1309 308.548 31.2321C307.851 31.3413 307.147 31.5235 306.474 31.8878C305.957 32.078 304.703 32.9563 304.377 33.1303C304.761 32.2884 305.318 31.3899 306.005 30.8921C306.688 30.2728 307.545 29.9207 308.412 29.7912C309.282 29.6657 310.173 29.8195 310.965 30.1959C311.746 30.5723 312.467 31.143 312.974 31.9363Z" fill="#07085B"/>
<path d="M319.813 32.851C320.438 32.1913 321.241 31.7987 322.074 31.6004C322.91 31.4142 323.807 31.4709 324.643 31.7947C325.473 32.1225 326.255 32.6689 326.826 33.4339C327.421 34.0814 327.818 35.0974 328.06 36.008C327.764 35.7611 326.68 34.6117 326.204 34.3041C325.602 33.79 324.943 33.45 324.276 33.1829C323.603 32.9198 322.893 32.7782 322.152 32.7418C321.404 32.7053 320.639 32.7498 319.813 32.851Z" fill="#07085B"/>
<path d="M312.386 160.012C312.386 160.012 308.915 188.057 331.67 192.942C354.428 197.827 382.745 196.37 382.745 196.37L386.684 260.789L398.565 261.51C398.565 261.51 429.155 172.001 386.814 158.009L348.762 158.232L333.094 156.9C333.094 156.9 317.24 152.237 317.053 153.124C316.862 154.018 312.759 160.458 312.386 160.012Z" fill="#070852"/>
<path d="M291.473 160.163C291.473 160.163 288.002 188.207 310.757 193.092C333.516 197.978 361.832 196.521 361.832 196.521L365.772 260.939L377.652 261.66C377.652 261.66 408.243 172.151 365.901 158.159L327.849 158.382L312.182 157.05C312.182 157.05 296.327 152.388 296.14 153.274C295.95 154.164 291.843 160.604 291.473 160.163Z" fill="#10116B"/>
<path d="M320.136 68.1363C320.136 68.1363 335.803 70.5041 339.784 74.3532C343.765 78.2023 362.916 134.765 362.916 134.765L346.997 156.977L313.171 157.273C313.171 157.273 287.802 173.559 271.883 158.159C255.964 142.759 264.173 89.1586 273.375 77.6113C282.577 66.0641 298.992 66.3595 298.992 66.3595C298.992 66.3595 313.919 78.7972 320.136 68.1363Z" fill="#FF5B7E"/>
<path d="M289.794 96.2701C290.355 99.3542 290.698 102.483 290.943 105.62C291.079 107.19 291.136 108.764 291.211 110.339C291.252 111.917 291.283 113.496 291.262 115.074C291.211 118.231 291.065 121.4 290.609 124.525C290.164 127.638 289.518 130.762 288.301 133.579C289.121 130.576 289.525 127.492 289.817 124.4C290.106 121.303 290.205 118.179 290.239 115.058C290.293 111.938 290.229 108.809 290.147 105.676C290.052 102.548 289.933 99.4149 289.794 96.2701Z" fill="white"/>
<path d="M336.677 94.1977C337.394 98.7834 338.152 103.357 338.921 107.918C339.706 112.476 340.522 117.025 341.45 121.542C342.368 126.059 343.384 130.543 344.615 134.943C345.233 137.141 345.92 139.31 346.729 141.415C347.524 143.524 348.469 145.567 349.734 147.352C348.293 145.75 347.235 143.722 346.28 141.678C345.352 139.606 344.553 137.452 343.863 135.259C343.16 133.069 342.555 130.839 341.983 128.601C341.433 126.354 340.926 124.092 340.454 121.825C340.005 119.551 339.573 117.268 339.186 114.981C338.812 112.686 338.445 110.395 338.135 108.088C337.5 103.482 337 98.8482 336.677 94.1977Z" fill="white"/>
<path d="M370.606 104.429C367.709 99.0664 343.999 89.9597 343.999 89.9597C343.999 98.6617 343.999 99.0381 343.999 99.0381L368.134 109.084L370.606 104.429Z" fill="#EDEDED"/>
<path d="M368.899 104.065L341.365 88.948V94.8167L368.219 106.352L368.899 104.065Z" fill="white"/>
<path d="M367.369 104.065L338.305 90.9716V101.09L367.077 106.352L367.369 104.065Z" fill="#EDEDED"/>
<path d="M370.606 103.033C370.606 103.033 376.208 87.4302 378.502 84.1922C378.502 94.4565 375.018 107.364 375.018 107.364L370.606 103.033Z" fill="white"/>
<path d="M373.053 103.721L379.845 83.2816V93.0197L375.178 106.352L373.053 103.721Z" fill="#EDEDED"/>
<path d="M375.178 104.065L382.581 84.1922V91.2752L375.178 104.065Z" fill="white"/>
<path d="M375.178 165.298L384.512 146.154V84.9207L375.178 104.065V165.298Z" fill="#26426E"/>
<path d="M332.169 156.05L365.221 165.298V104.065L332.169 94.8168V156.05Z" fill="#55769F"/>
<path d="M365.221 104.065C368.134 102.406 374.229 102.992 375.178 104.065C374.678 107.566 365.962 108.254 365.221 104.065Z" fill="#E0E0E0"/>
<path d="M365.221 165.298C365.221 166.796 375.222 166.796 375.222 165.298V104.065C374.209 105.846 366.35 105.797 365.221 104.065V165.298Z" fill="#3A5782"/>
<path d="M344.55 144.179C344.451 143.24 338.472 142.196 336.276 142.058C334.61 141.957 323.576 141.516 319.823 141.314L320.099 142.463L320.041 147.539L319.426 150.902C322.719 151.149 330.769 151.525 332.445 151.922C334.685 152.448 338.567 154.46 338.567 154.46C338.567 154.46 340.182 154.023 338.129 152.966C336.48 152.12 335.324 150.809 334.835 150.153C334.552 149.777 334.858 149.109 335.062 149.174C340.651 150.918 341.225 151.206 341.225 151.206C341.225 151.206 347.793 151.161 341.263 149.405C337.347 148.352 335.943 147.737 335.596 147.215C335.447 146.992 335.712 146.235 335.95 146.215C339.342 145.964 345.43 147.397 343.761 146.458C342.402 145.693 338.118 144.855 336.453 144.535C336.351 144.515 336.184 143.779 336.64 143.73C339.876 143.418 344.642 145.05 344.55 144.179Z" fill="#FFC0BB"/>
<path d="M285.969 132.806C287.346 133.203 288.703 133.664 290.083 134.004C291.453 134.393 292.846 134.676 294.223 135.024C296.997 135.627 299.778 136.149 302.568 136.615C305.363 137.052 308.157 137.453 310.961 137.776C313.756 138.108 316.594 138.387 319.361 138.574L319.732 138.598L319.813 138.982C320.051 140.1 320.204 141.188 320.323 142.305C320.439 143.418 320.49 144.54 320.486 145.661C320.479 146.782 320.398 147.907 320.241 149.02C320.071 150.129 319.793 151.218 319.422 152.258L319.392 152.347L319.33 152.396L316.257 154.848C315.234 155.666 314.208 156.479 313.171 157.277C314.133 156.358 315.105 155.455 316.084 154.557L319.011 151.865L318.919 152.003C319.228 150.995 319.443 149.955 319.562 148.891C319.67 147.826 319.721 146.749 319.694 145.669C319.664 144.592 319.575 143.516 319.449 142.443C319.317 141.379 319.14 140.298 318.905 139.29L319.358 139.699C317.896 139.654 316.512 139.541 315.091 139.42C313.677 139.294 312.267 139.161 310.859 138.987C308.041 138.642 305.23 138.222 302.432 137.691C299.635 137.153 296.854 136.505 294.097 135.728C292.724 135.311 291.351 134.907 289.998 134.401C288.635 133.939 287.299 133.369 285.969 132.806Z" fill="white"/>
<path d="M332.798 14.3665C332.798 14.3665 338.023 14.5648 332.54 9.30721C327.057 4.04961 312.341 -2.11864 302.908 3.81082C302.908 3.81082 301.022 -0.965133 298.295 0.176238C295.569 1.31761 300.07 4.60007 300.07 4.60007C300.07 4.60007 296.589 4.4665 295.525 6.50235C294.74 8.00394 296.871 8.07276 298.037 8.00395C296.055 8.40464 288.454 14.1196 292.268 32.3653C293.625 32.0092 301.351 18.6729 301.351 18.6729C301.351 18.6729 319.018 30.3619 317.27 21.069C317.27 21.069 335.576 34.6683 332.979 23.4367C332.979 23.4327 340.056 24.0519 332.798 14.3665Z" fill="#07085B"/>
<path d="M292.251 32.4787C292.251 32.4787 293.713 31.8675 295.287 33.3529C296.861 34.8383 296.688 40.0635 296.688 40.0635C296.688 40.0635 304.197 45.8311 303.405 21.4293C302.562 -4.53087 297.14 23.5096 297.14 23.5096L292.251 32.4787Z" fill="#07085B"/>
</svg>
