<svg width="36" height="36" viewBox="0 0 36 36" fill="none" xmlns="http://www.w3.org/2000/svg">
<rect width="36" height="36" rx="18" fill="#C2C2C2"/>
<path fill-rule="evenodd" clip-rule="evenodd" d="M14.75 9.47021H21.25C24.2411 9.47021 26.6667 11.8958 26.6667 14.8869V21.3869C26.6667 24.378 24.2411 26.8035 21.25 26.8035H14.75C11.759 26.8035 9.33337 24.378 9.33337 21.3869V14.8869C9.33337 11.8958 11.759 9.47021 14.75 9.47021ZM21.2501 25.1785C23.3409 25.1785 25.0418 23.4777 25.0418 21.3869V14.8869C25.0418 12.796 23.3409 11.0952 21.2501 11.0952H14.7501C12.6593 11.0952 10.9584 12.796 10.9584 14.8869V21.3869C10.9584 23.4777 12.6593 25.1785 14.7501 25.1785H21.2501Z" fill="white"/>
<path fill-rule="evenodd" clip-rule="evenodd" d="M13.3334 18.1361C13.3334 15.743 15.2736 13.8027 17.6667 13.8027C20.0598 13.8027 22 15.743 22 18.1361C22 20.5292 20.0598 22.4694 17.6667 22.4694C15.2736 22.4694 13.3334 20.5292 13.3334 18.1361ZM14.9584 18.136C14.9584 19.6288 16.1739 20.8443 17.6668 20.8443C19.1596 20.8443 20.3751 19.6288 20.3751 18.136C20.3751 16.6421 19.1596 15.4276 17.6668 15.4276C16.1739 15.4276 14.9584 16.6421 14.9584 18.136Z" fill="white"/>
<ellipse cx="21.9914" cy="13.4788" rx="0.577416" ry="0.577417" fill="white"/>
</svg>
