<svg width="48" height="48" viewBox="0 0 48 48" fill="none" xmlns="http://www.w3.org/2000/svg">
<rect width="48" height="48" rx="24" fill="#C2C2C2"/>
<path d="M25.5443 22.4563C24.7252 21.6375 23.6144 21.1776 22.4563 21.1776C21.2981 21.1776 20.1874 21.6375 19.3683 22.4563L16.2793 25.5443C15.4602 26.3634 15 27.4744 15 28.6328C15 29.7912 15.4602 30.9021 16.2793 31.7213C17.0984 32.5404 18.2094 33.0006 19.3678 33.0006C20.5262 33.0006 21.6372 32.5404 22.4563 31.7213L24.0003 30.1773" stroke="white" stroke-width="2" stroke-linecap="round" stroke-linejoin="round"/>
<path d="M22.4561 25.5443C23.2752 26.3631 24.3859 26.823 25.5441 26.823C26.7022 26.823 27.8129 26.3631 28.6321 25.5443L31.7211 22.4563C32.5402 21.6372 33.0004 20.5262 33.0004 19.3678C33.0004 18.2094 32.5402 17.0984 31.7211 16.2793C30.9019 15.4602 29.791 15 28.6326 15C27.4741 15 26.3632 15.4602 25.5441 16.2793L24.0001 17.8233" stroke="white" stroke-width="2" stroke-linecap="round" stroke-linejoin="round"/>
</svg>
