<svg width="32" height="32" viewBox="0 0 32 32" fill="none" xmlns="http://www.w3.org/2000/svg">
<rect width="32" height="32" rx="16" fill="#FF5B5B"/>
<path d="M15.5977 24.4844C13.9102 24.4844 12.5078 24.1875 11.3906 23.5938C10.2734 22.9922 9.53906 22.207 9.1875 21.2383C9.0625 20.9102 9 20.5938 9 20.2891C9 19.8203 9.14453 19.4453 9.43359 19.1641C9.72266 18.875 10.0977 18.7305 10.5586 18.7305C10.9258 18.7305 11.2344 18.8125 11.4844 18.9766C11.7422 19.1328 11.9766 19.3945 12.1875 19.7617C12.4531 20.3867 12.8906 20.8555 13.5 21.168C14.1172 21.4805 14.8438 21.6367 15.6797 21.6367C16.625 21.6367 17.3906 21.4336 17.9766 21.0273C18.5703 20.6211 18.8672 20.1055 18.8672 19.4805C18.8672 18.918 18.6445 18.4688 18.1992 18.1328C17.7539 17.7969 17.0039 17.5195 15.9492 17.3008L14.1562 16.9492C10.8047 16.2852 9.12891 14.6836 9.12891 12.1445C9.12891 11.1289 9.40234 10.2305 9.94922 9.44922C10.5039 8.66016 11.2695 8.05469 12.2461 7.63281C13.2305 7.21094 14.3438 7 15.5859 7C17.1406 7 18.4648 7.30859 19.5586 7.92578C20.6523 8.54297 21.3867 9.40234 21.7617 10.5039C21.8477 10.7461 21.8906 11.0078 21.8906 11.2891C21.8906 11.7109 21.75 12.0547 21.4688 12.3203C21.1953 12.5781 20.832 12.707 20.3789 12.707C19.9805 12.707 19.6484 12.625 19.3828 12.4609C19.125 12.2969 18.8945 12.0312 18.6914 11.6641C18.1602 10.4609 17.125 9.85938 15.5859 9.85938C14.7109 9.85938 14.0078 10.0508 13.4766 10.4336C12.9453 10.8086 12.6797 11.3047 12.6797 11.9219C12.6797 12.4453 12.8984 12.875 13.3359 13.2109C13.7812 13.5469 14.5 13.8125 15.4922 14.0078L17.2734 14.3711C19.0625 14.7305 20.3633 15.2852 21.1758 16.0352C21.9961 16.7852 22.4062 17.8047 22.4062 19.0938C22.4062 20.75 21.7969 22.0625 20.5781 23.0312C19.3594 24 17.6992 24.4844 15.5977 24.4844Z" fill="white"/>
</svg>
