<svg width="529" height="215" viewBox="0 0 529 215" fill="none" xmlns="http://www.w3.org/2000/svg">
<path d="M0 0.164307L466.414 67.3123L529 130.471L0 0.164307Z" fill="white"/>
<path opacity="0.6" d="M0 0.164307L466.414 67.3123L529 130.471L0 0.164307Z" fill="#E1E1E1"/>
<path d="M0 0.164307L466.414 67.3123L444.768 158.643L0 0.164307Z" fill="white"/>
<path opacity="0.2" d="M0 0.164307L466.414 67.3123L444.768 158.643L0 0.164307Z" fill="black"/>
<path d="M0 0.164307L384.699 91.5977L444.768 158.643L0 0.164307Z" fill="white"/>
<path opacity="0.6" d="M0 0.164307L384.699 91.5977L444.768 158.643L0 0.164307Z" fill="#E1E1E1"/>
<path d="M140.329 88.2938L139.295 90.0592L182.106 115.136L183.14 113.37L140.329 88.2938Z" fill="white"/>
<path d="M202.04 124.426L201.006 126.191L216.4 135.209L217.435 133.443L202.04 124.426Z" fill="white"/>
<path d="M0 0.164307L384.699 91.5977L309.92 181.722L0 0.164307Z" fill="white"/>
<path d="M514.555 214.375C514.037 214.376 513.523 214.279 513.041 214.088L450.394 189.292C449.392 188.888 448.59 188.104 448.164 187.111C447.737 186.118 447.721 184.997 448.118 183.992C448.515 182.987 449.294 182.18 450.283 181.747C451.273 181.314 452.394 181.29 453.402 181.681L516.069 206.478C516.956 206.828 517.692 207.477 518.151 208.312C518.611 209.148 518.764 210.117 518.584 211.053C518.405 211.99 517.904 212.834 517.168 213.44C516.433 214.047 515.509 214.377 514.555 214.375Z" fill="white"/>
<path opacity="0.3" d="M514.555 214.375C514.037 214.376 513.523 214.279 513.041 214.088L450.394 189.292C449.392 188.888 448.59 188.104 448.164 187.111C447.737 186.118 447.721 184.997 448.118 183.992C448.515 182.987 449.294 182.18 450.283 181.747C451.273 181.314 452.394 181.29 453.402 181.681L516.069 206.478C516.956 206.828 517.692 207.477 518.151 208.312C518.611 209.148 518.764 210.117 518.584 211.053C518.405 211.99 517.904 212.834 517.168 213.44C516.433 214.047 515.509 214.377 514.555 214.375Z" fill="white"/>
<path d="M510.852 178.448C510.339 178.445 509.832 178.341 509.359 178.141L475.703 164.74C475.2 164.545 474.74 164.253 474.351 163.879C473.961 163.506 473.649 163.059 473.433 162.565C473.217 162.07 473.1 161.538 473.091 160.999C473.081 160.459 473.178 159.923 473.376 159.421C473.575 158.919 473.87 158.461 474.246 158.074C474.622 157.687 475.071 157.378 475.567 157.165C476.062 156.952 476.595 156.839 477.135 156.833C477.675 156.827 478.21 156.928 478.711 157.129L512.367 170.469C513.375 170.866 514.185 171.647 514.618 172.64C515.052 173.634 515.074 174.759 514.678 175.768C514.39 176.552 513.869 177.228 513.186 177.708C512.502 178.187 511.687 178.445 510.852 178.448Z" fill="white"/>
<path opacity="0.5" d="M510.852 178.448C510.339 178.445 509.832 178.341 509.359 178.141L475.703 164.74C475.2 164.545 474.74 164.253 474.351 163.879C473.961 163.506 473.649 163.059 473.433 162.565C473.217 162.07 473.1 161.538 473.091 160.999C473.081 160.459 473.178 159.923 473.376 159.421C473.575 158.919 473.87 158.461 474.246 158.074C474.622 157.687 475.071 157.378 475.567 157.165C476.062 156.952 476.595 156.839 477.135 156.833C477.675 156.827 478.21 156.928 478.711 157.129L512.367 170.469C513.375 170.866 514.185 171.647 514.618 172.64C515.052 173.634 515.074 174.759 514.678 175.768C514.39 176.552 513.869 177.228 513.186 177.708C512.502 178.187 511.687 178.445 510.852 178.448Z" fill="white"/>
<path d="M440.492 213.843C439.981 213.837 439.475 213.74 438.998 213.557L377.886 189.292C377.383 189.097 376.923 188.804 376.533 188.431C376.144 188.057 375.832 187.611 375.616 187.116C375.399 186.622 375.283 186.089 375.273 185.55C375.263 185.01 375.36 184.474 375.559 183.972C375.757 183.47 376.053 183.013 376.429 182.626C376.805 182.239 377.253 181.93 377.749 181.717C378.245 181.504 378.778 181.391 379.318 181.385C379.857 181.378 380.393 181.479 380.893 181.681L442.006 205.864C442.892 206.214 443.629 206.863 444.088 207.698C444.547 208.534 444.7 209.503 444.52 210.44C444.341 211.376 443.84 212.22 443.105 212.826C442.369 213.433 441.445 213.763 440.492 213.761V213.843Z" fill="white"/>
<path opacity="0.3" d="M440.492 213.843C439.981 213.837 439.475 213.74 438.998 213.557L377.886 189.292C377.383 189.097 376.923 188.804 376.533 188.431C376.144 188.057 375.832 187.611 375.616 187.116C375.399 186.622 375.283 186.089 375.273 185.55C375.263 185.01 375.36 184.474 375.559 183.972C375.757 183.47 376.053 183.013 376.429 182.626C376.805 182.239 377.253 181.93 377.749 181.717C378.245 181.504 378.778 181.391 379.318 181.385C379.857 181.378 380.393 181.479 380.893 181.681L442.006 205.864C442.892 206.214 443.629 206.863 444.088 207.698C444.547 208.534 444.7 209.503 444.52 210.44C444.341 211.376 443.84 212.22 443.105 212.826C442.369 213.433 441.445 213.763 440.492 213.761V213.843Z" fill="white"/>
</svg>
