<svg width="652" height="473" viewBox="0 0 652 473" fill="none" xmlns="http://www.w3.org/2000/svg">
<path d="M461.398 752L0 588.168L190.603 0L652 163.832L461.398 752Z" fill="white"/>
<path d="M565.604 202.381L232.436 84.0246L238.247 66.256L571.414 184.612L565.604 202.381Z" fill="#1D1D1B"/>
<path d="M549.722 251.47L216.554 133.113L220.041 121.97L553.596 240.327L549.722 251.47Z" fill="#1D1D1B"/>
<path d="M540.419 280.681L206.863 162.626L210.35 151.483L543.905 269.84L540.419 280.681Z" fill="#1D1D1B"/>
<path d="M530.737 310.196L197.182 191.84L201.056 180.998L534.224 299.355L530.737 310.196Z" fill="#1D1D1B"/>
<path d="M511.764 369.225L178.21 250.868L181.696 240.027L515.251 358.383L511.764 369.225Z" fill="#1D1D1B"/>
<path d="M502.08 398.738L168.526 280.382L172.401 269.54L505.567 387.896L502.08 398.738Z" fill="#1D1D1B"/>
<path d="M286.678 355.37L159.222 309.895L162.709 299.053L290.552 344.227L286.678 355.37Z" fill="#1D1D1B"/>
<path d="M483.086 457.765L149.531 339.408L153.018 328.566L486.573 446.923L483.086 457.765Z" fill="#1D1D1B"/>
<path d="M473.402 487.279L139.847 368.923L143.721 358.081L476.889 476.437L473.402 487.279Z" fill="#1D1D1B"/>
<path d="M385.857 489.086L130.558 398.436L134.044 387.595L389.343 478.244L385.857 489.086Z" fill="#1D1D1B"/>
</svg>
