<svg width="531" height="280" viewBox="0 0 531 280" fill="none" xmlns="http://www.w3.org/2000/svg">
<path d="M514.298 66.7485H17.681V279.228H514.298V66.7485Z" fill="#DDE3C4"/>
<path d="M521.329 204.233H8.83411V209.245H521.329V204.233Z" fill="#DDE3C4"/>
<path d="M530.176 151.74H0V156.752H530.176V151.74Z" fill="#DDE3C4"/>
<path d="M512.495 57.6587H17.6811L0 151.74H530.176L512.495 57.6587Z" fill="#DDE3C4"/>
<path d="M512.495 57.6587H17.6811L15.5972 68.7429H514.579L512.495 57.6587Z" fill="#DDE3C4"/>
<path d="M514.298 256.957H17.681V279.228H514.298V256.957Z" fill="#DDE3C4"/>
<path d="M346.628 102.673H185.338V279.228H346.628V102.673Z" fill="#DDE3C4"/>
<path d="M295.924 158.464H234.264V247.036H295.924V158.464Z" fill="#DDE3C4"/>
<path d="M338.83 102.673H193.137V125.327H338.83V102.673Z" fill="#DDE3C4"/>
<path d="M265.996 0L180.25 102.673H185.338H346.641H351.729L265.996 0Z" fill="#DDE3C4"/>
<path d="M185.338 102.673L265.996 9.11523L346.641 102.673H185.338Z" fill="#DDE3C4"/>
<path d="M200.935 102.673H185.338V271.058H200.935V102.673Z" fill="#DDE3C4"/>
<path d="M346.641 102.673H331.043V271.058H346.641V102.673Z" fill="#DDE3C4"/>
<path d="M206.036 239.89H180.25V279.228H206.036V239.89Z" fill="#DDE3C4"/>
<path d="M351.729 239.89H325.943V279.228H351.729V239.89Z" fill="#DDE3C4"/>
<path d="M206.036 102.673H180.25V110.842H206.036V102.673Z" fill="#DDE3C4"/>
<path d="M351.729 102.673H325.943V110.842H351.729V102.673Z" fill="#DDE3C4"/>
<path d="M292.383 162.006H237.793V247.036H292.383V162.006Z" fill="#DDE3C4"/>
<path d="M325.943 268.093H206.036V279.228H325.943V268.093Z" fill="#DDE3C4"/>
<path d="M325.943 263.158H206.036V268.093H325.943V263.158Z" fill="#DDE3C4"/>
<path d="M325.943 252.022H206.036V263.158H325.943V252.022Z" fill="#DDE3C4"/>
<path d="M325.943 247.087H206.036V252.022H325.943V247.087Z" fill="#DDE3C4"/>
<path d="M206.036 239.89H180.25V244.313H206.036V239.89Z" fill="#DDE3C4"/>
<path d="M351.729 239.89H325.943V244.313H351.729V239.89Z" fill="#DDE3C4"/>
<path d="M262.16 170.7H246.256V210.166H262.16V170.7Z" fill="#DDE3C4"/>
<path d="M285.722 170.7H269.818V210.166H285.722V170.7Z" fill="#DDE3C4"/>
<path d="M262.16 217.67H246.256V228.128H262.16V217.67Z" fill="#DDE3C4"/>
<path d="M285.722 217.67H269.818V228.128H285.722V217.67Z" fill="#DDE3C4"/>
<path d="M145.015 214.563H120.162V251.306H145.015V214.563Z" fill="#DDE3C4"/>
<path d="M143.264 216.328H121.939V249.542H143.264V216.328Z" fill="#DDE3C4"/>
<path opacity="0.1" d="M138.738 216.328L127.91 249.542H121.939V216.328H138.738Z" fill="#DDE3C4"/>
<path opacity="0.1" d="M143.251 224.114L137.191 249.542H143.251V224.114Z" fill="#DDE3C4"/>
<path d="M133.33 216.328H131.86V249.542H133.33V216.328Z" fill="#DDE3C4"/>
<path d="M143.256 233.666V232.196H121.931V233.666H143.256Z" fill="#DDE3C4"/>
<path d="M107.122 214.563H82.2688V251.306H107.122V214.563Z" fill="#DDE3C4"/>
<path d="M105.37 216.328H84.0458V249.542H105.37V216.328Z" fill="#DDE3C4"/>
<path opacity="0.1" d="M100.845 216.328L90.0162 249.542H84.0458V216.328H100.845Z" fill="#DDE3C4"/>
<path opacity="0.1" d="M105.358 224.114L99.2977 249.542H105.358V224.114Z" fill="#DDE3C4"/>
<path d="M95.4368 216.328H93.9666V249.542H95.4368V216.328Z" fill="#DDE3C4"/>
<path d="M105.362 233.667V232.197H84.0373V233.667H105.362Z" fill="#DDE3C4"/>
<path d="M69.2284 214.563H44.3752V251.306H69.2284V214.563Z" fill="#DDE3C4"/>
<path d="M67.477 216.328H46.1523V249.542H67.477V216.328Z" fill="#DDE3C4"/>
<path opacity="0.1" d="M62.9513 216.328L52.1227 249.542H46.1523V216.328H62.9513Z" fill="#DDE3C4"/>
<path opacity="0.1" d="M67.4642 224.114L61.4043 249.542H67.4642V224.114Z" fill="#DDE3C4"/>
<path d="M57.5435 216.328H56.0732V249.542H57.5435V216.328Z" fill="#DDE3C4"/>
<path d="M67.4679 233.667V232.197H46.1432V233.667H67.4679Z" fill="#DDE3C4"/>
<path d="M485.801 214.563H460.948V251.306H485.801V214.563Z" fill="#DDE3C4"/>
<path d="M484.037 216.328H462.712V249.542H484.037V216.328Z" fill="#DDE3C4"/>
<path opacity="0.1" d="M479.511 216.328L468.683 249.542H462.712V216.328H479.511Z" fill="#DDE3C4"/>
<path opacity="0.1" d="M484.024 224.114L477.964 249.542H484.024V224.114Z" fill="#DDE3C4"/>
<path d="M474.103 216.328H472.633V249.542H474.103V216.328Z" fill="#DDE3C4"/>
<path d="M484.029 233.666V232.195H462.705V233.666H484.029Z" fill="#DDE3C4"/>
<path d="M447.895 214.563H423.042V251.306H447.895V214.563Z" fill="#DDE3C4"/>
<path d="M446.143 216.328H424.819V249.542H446.143V216.328Z" fill="#DDE3C4"/>
<path opacity="0.1" d="M441.618 216.328L430.789 249.542H424.819V216.328H441.618Z" fill="#DDE3C4"/>
<path opacity="0.1" d="M446.13 224.114L440.071 249.542H446.13V224.114Z" fill="#DDE3C4"/>
<path d="M436.21 216.328H434.739V249.542H436.21V216.328Z" fill="#DDE3C4"/>
<path d="M446.135 233.667V232.196H424.811V233.667H446.135Z" fill="#DDE3C4"/>
<path d="M410.001 214.563H385.148V251.306H410.001V214.563Z" fill="#DDE3C4"/>
<path d="M408.25 216.328H386.925V249.542H408.25V216.328Z" fill="#DDE3C4"/>
<path opacity="0.1" d="M403.724 216.328L392.895 249.542H386.925V216.328H403.724Z" fill="#DDE3C4"/>
<path opacity="0.1" d="M408.237 224.114L402.177 249.542H408.237V224.114Z" fill="#DDE3C4"/>
<path d="M398.316 216.328H396.846V249.542H398.316V216.328Z" fill="#DDE3C4"/>
<path d="M408.241 233.667V232.197H386.917V233.667H408.241Z" fill="#DDE3C4"/>
<path d="M145.015 162.186H120.162V198.928H145.015V162.186Z" fill="#DDE3C4"/>
<path d="M143.264 163.95H121.939V197.164H143.264V163.95Z" fill="#DDE3C4"/>
<path opacity="0.1" d="M138.738 163.95L127.909 197.164H121.939V163.95H138.738Z" fill="#DDE3C4"/>
<path opacity="0.1" d="M143.251 171.749L137.191 197.164H143.251V171.749Z" fill="#DDE3C4"/>
<path d="M133.33 163.95H131.86V197.164H133.33V163.95Z" fill="#DDE3C4"/>
<path d="M143.258 181.291V179.82H121.934V181.291H143.258Z" fill="#DDE3C4"/>
<path d="M107.122 162.186H82.2687V198.928H107.122V162.186Z" fill="#DDE3C4"/>
<path d="M105.37 163.95H84.0457V197.164H105.37V163.95Z" fill="#DDE3C4"/>
<path opacity="0.1" d="M100.845 163.95L90.016 197.164H84.0457V163.95H100.845Z" fill="#DDE3C4"/>
<path opacity="0.1" d="M105.357 171.749L99.2976 197.164H105.357V171.749Z" fill="#DDE3C4"/>
<path d="M95.4368 163.95H93.9666V197.164H95.4368V163.95Z" fill="#DDE3C4"/>
<path d="M105.364 181.291V179.821H84.0393V181.291H105.364Z" fill="#DDE3C4"/>
<path d="M69.2284 162.186H44.3752V198.928H69.2284V162.186Z" fill="#DDE3C4"/>
<path d="M67.477 163.95H46.1523V197.164H67.477V163.95Z" fill="#DDE3C4"/>
<path opacity="0.1" d="M62.9513 163.95L52.1227 197.164H46.1523V163.95H62.9513Z" fill="#DDE3C4"/>
<path opacity="0.1" d="M67.4642 171.749L61.4043 197.164H67.4642V171.749Z" fill="#DDE3C4"/>
<path d="M57.5435 163.95H56.0732V197.164H57.5435V163.95Z" fill="#DDE3C4"/>
<path d="M67.4701 181.292V179.822H46.1454V181.292H67.4701Z" fill="#DDE3C4"/>
<path d="M485.801 162.186H460.948V198.928H485.801V162.186Z" fill="#DDE3C4"/>
<path d="M484.037 163.95H462.712V197.164H484.037V163.95Z" fill="#DDE3C4"/>
<path opacity="0.1" d="M479.511 163.95L468.683 197.164H462.712V163.95H479.511Z" fill="#DDE3C4"/>
<path opacity="0.1" d="M484.024 171.749L477.964 197.164H484.024V171.749Z" fill="#DDE3C4"/>
<path d="M474.103 163.95H472.633V197.164H474.103V163.95Z" fill="#DDE3C4"/>
<path d="M484.032 181.29V179.82H462.707V181.29H484.032Z" fill="#DDE3C4"/>
<path d="M447.895 162.186H423.042V198.928H447.895V162.186Z" fill="#DDE3C4"/>
<path d="M446.143 163.95H424.819V197.164H446.143V163.95Z" fill="#DDE3C4"/>
<path opacity="0.1" d="M441.618 163.95L430.789 197.164H424.819V163.95H441.618Z" fill="#DDE3C4"/>
<path opacity="0.1" d="M446.13 171.749L440.071 197.164H446.13V171.749Z" fill="#DDE3C4"/>
<path d="M436.21 163.95H434.739V197.164H436.21V163.95Z" fill="#DDE3C4"/>
<path d="M446.137 181.291V179.82H424.813V181.291H446.137Z" fill="#DDE3C4"/>
<path d="M410.001 162.186H385.148V198.928H410.001V162.186Z" fill="#DDE3C4"/>
<path d="M408.25 163.95H386.925V197.164H408.25V163.95Z" fill="#DDE3C4"/>
<path opacity="0.1" d="M403.724 163.95L392.895 197.164H386.925V163.95H403.724Z" fill="#DDE3C4"/>
<path opacity="0.1" d="M408.237 171.749L402.177 197.164H408.237V171.749Z" fill="#DDE3C4"/>
<path d="M398.316 163.95H396.846V197.164H398.316V163.95Z" fill="#DDE3C4"/>
<path d="M408.243 181.291V179.821H386.919V181.291H408.243Z" fill="#DDE3C4"/>
<path opacity="0.1" d="M246.256 170.7V210.166L262.16 170.7H246.256Z" fill="#DDE3C4"/>
<path opacity="0.1" d="M285.722 170.7L269.818 210.166V170.7H285.722Z" fill="#DDE3C4"/>
<path opacity="0.1" d="M262.16 217.67V228.128H254.208L258.184 217.67H262.16Z" fill="#DDE3C4"/>
<path opacity="0.1" d="M285.722 217.67V228.128H277.77L281.746 217.67H285.722Z" fill="#DDE3C4"/>
<path d="M298.302 129.393H233.689V147.674H298.302V129.393Z" fill="#DDE3C4"/>
<path d="M264.781 131.157H235.453V145.897H264.781V131.157Z" fill="#DDE3C4"/>
<path d="M296.525 131.157H268.361V145.897H296.525V131.157Z" fill="#DDE3C4"/>
<path opacity="0.1" d="M235.453 131.157V145.898H247.854L252.278 131.157H235.453Z" fill="#DDE3C4"/>
<path opacity="0.1" d="M264.781 131.157L260.23 145.898H264.781V131.157Z" fill="#DDE3C4"/>
<path opacity="0.1" d="M268.361 131.157V145.898H280.762L285.185 131.157H268.361Z" fill="#DDE3C4"/>
<path opacity="0.1" d="M296.525 131.157L291.974 145.898H296.525V131.157Z" fill="#DDE3C4"/>
<path d="M274.098 76.0683C279.245 70.9209 279.245 62.5753 274.098 57.4279C268.95 52.2805 260.605 52.2804 255.457 57.4278C250.31 62.5753 250.31 70.9209 255.457 76.0683C260.605 81.2157 268.95 81.2157 274.098 76.0683Z" fill="#DDE3C4"/>
<path d="M78.1776 246.78C62.9511 246.78 50.614 261.316 50.614 279.253H105.741C105.741 261.329 93.3912 246.78 78.1776 246.78Z" fill="#DDE3C4"/>
<path d="M107.838 260.281C100.96 260.281 95.3856 268.783 95.3856 279.253H120.29C120.29 268.783 114.716 260.281 107.838 260.281Z" fill="#DDE3C4"/>
<path d="M30.1331 260.281C23.255 260.281 17.6809 268.783 17.6809 279.253H42.5852C42.5852 268.783 37.0112 260.281 30.1331 260.281Z" fill="#DDE3C4"/>
<path d="M155.051 252.022C146.166 252.022 138.968 264.218 138.968 279.266H171.147C171.134 264.218 163.936 252.022 155.051 252.022Z" fill="#DDE3C4"/>
<path d="M47.1877 265.625C41.4602 265.625 36.8322 271.736 36.8322 279.266H57.556C57.5432 271.736 52.9024 265.625 47.1877 265.625Z" fill="#DDE3C4"/>
<path d="M124.33 273.398C120.955 273.398 118.232 276.032 118.232 279.279H130.428C130.441 276.032 127.705 273.398 124.33 273.398Z" fill="#DDE3C4"/>
<path d="M174.151 273.398C170.776 273.398 168.053 276.032 168.053 279.279H180.25C180.25 276.032 177.514 273.398 174.151 273.398Z" fill="#DDE3C4"/>
<path d="M135.491 265.625C131.898 265.625 128.996 271.736 128.996 279.278H141.985C141.985 271.736 139.083 265.625 135.491 265.625Z" fill="#DDE3C4"/>
<path d="M453.814 246.78C469.04 246.78 481.377 261.316 481.377 279.253H426.25C426.237 261.329 438.587 246.78 453.814 246.78Z" fill="#DDE3C4"/>
<path d="M424.141 260.281C431.019 260.281 436.593 268.783 436.593 279.253H411.689C411.689 268.783 417.263 260.281 424.141 260.281Z" fill="#DDE3C4"/>
<path d="M501.845 260.281C508.724 260.281 514.298 268.783 514.298 279.253H489.393C489.393 268.783 494.967 260.281 501.845 260.281Z" fill="#DDE3C4"/>
<path d="M376.94 252.022C385.825 252.022 393.023 264.218 393.023 279.266H360.844C360.844 264.218 368.055 252.022 376.94 252.022Z" fill="#DDE3C4"/>
<path d="M484.791 265.625C490.518 265.625 495.146 271.736 495.146 279.266H474.422C474.435 271.736 479.076 265.625 484.791 265.625Z" fill="#DDE3C4"/>
<path d="M407.649 273.398C411.024 273.398 413.747 276.032 413.747 279.279H401.55C401.55 276.032 404.274 273.398 407.649 273.398Z" fill="#DDE3C4"/>
<path d="M357.827 273.398C361.202 273.398 363.925 276.032 363.925 279.279H351.729C351.729 276.032 354.465 273.398 357.827 273.398Z" fill="#DDE3C4"/>
<path d="M396.488 265.625C400.08 265.625 402.982 271.736 402.982 279.278H389.993C389.993 271.736 392.895 265.625 396.488 265.625Z" fill="#DDE3C4"/>
</svg>
