<svg width="597" height="315" viewBox="0 0 597 315" fill="none" xmlns="http://www.w3.org/2000/svg">
<path d="M578.578 75.0889H19.9065V314.119H578.578V75.0889Z" fill="#CC5745"/>
<path d="M586.489 229.754H9.9541V235.391H586.489V229.754Z" fill="#FCAF79"/>
<path d="M596.441 170.701H0.0161133V176.339H596.441V170.701Z" fill="#FCAF79"/>
<path d="M576.551 64.8633H19.9065L0.0161133 170.701H596.441L576.551 64.8633Z" fill="#783526"/>
<path d="M576.551 64.8633H19.9065L17.5623 77.3325H578.895L576.551 64.8633Z" fill="#5C281D"/>
<path d="M578.578 289.065H19.9065V314.119H578.578V289.065Z" fill="#EB9B6A"/>
<path d="M389.958 115.503H208.513V314.119H389.958V115.503Z" fill="#D36147"/>
<path d="M332.918 178.266H263.553V277.905H332.918V178.266Z" fill="#DEB2A9"/>
<path d="M381.184 115.503H217.286V140.988H381.184V115.503Z" fill="#B6513D"/>
<path d="M299.25 0L202.789 115.503H208.513H389.972H395.696L299.25 0Z" fill="#5C281D"/>
<path d="M208.513 115.502L299.25 10.2544L389.972 115.502H208.513Z" fill="#F04848"/>
<path d="M226.059 115.503H208.513V304.929H226.059V115.503Z" fill="#FCBC90"/>
<path d="M389.972 115.503H372.426V304.929H389.972V115.503Z" fill="#FCBC90"/>
<path d="M231.798 269.865H202.789V314.119H231.798V269.865Z" fill="#FCD89C"/>
<path d="M395.696 269.865H366.687V314.119H395.696V269.865Z" fill="#FCD89C"/>
<path d="M231.798 115.503H202.789V124.693H231.798V115.503Z" fill="#F8EABD"/>
<path d="M395.696 115.503H366.687V124.693H395.696V115.503Z" fill="#F8EABD"/>
<path d="M328.934 182.25H267.523V277.905H328.934V182.25Z" fill="#5C5A49"/>
<path d="M366.687 301.592H231.798V314.119H366.687V301.592Z" fill="#ADB6BB"/>
<path d="M366.687 296.041H231.798V301.592H366.687V296.041Z" fill="#C3D0D9"/>
<path d="M366.687 283.514H231.798V296.041H366.687V283.514Z" fill="#ADB6BB"/>
<path d="M366.687 277.963H231.798V283.514H366.687V277.963Z" fill="#C3D0D9"/>
<path d="M231.798 269.865H202.789V274.842H231.798V269.865Z" fill="#F8EABD"/>
<path d="M395.696 269.865H366.687V274.842H395.696V269.865Z" fill="#F8EABD"/>
<path d="M294.935 192.03H277.044V236.427H294.935V192.03Z" fill="#62C1AB"/>
<path d="M321.441 192.03H303.55V236.427H321.441V192.03Z" fill="#62C1AB"/>
<path d="M294.935 244.869H277.044V256.634H294.935V244.869Z" fill="#62C1AB"/>
<path d="M321.441 244.869H303.55V256.634H321.441V244.869Z" fill="#62C1AB"/>
<path d="M163.152 241.375H135.193V282.709H163.152V241.375Z" fill="#7A2544"/>
<path d="M161.182 243.359H137.192V280.724H161.182V243.359Z" fill="#50B7A4"/>
<path opacity="0.1" d="M156.09 243.359L143.909 280.724H137.192V243.359H156.09Z" fill="white"/>
<path opacity="0.1" d="M161.167 252.118L154.35 280.724H161.167V252.118Z" fill="white"/>
<path d="M150.007 243.359H148.353V280.724H150.007V243.359Z" fill="#7A2544"/>
<path d="M161.173 262.864V261.211H137.183V262.864H161.173Z" fill="#7A2544"/>
<path d="M120.523 241.375H92.5647V282.709H120.523V241.375Z" fill="#7A2544"/>
<path d="M118.553 243.359H94.5637V280.724H118.553V243.359Z" fill="#50B7A4"/>
<path opacity="0.1" d="M113.462 243.359L101.28 280.724H94.5637V243.359H113.462Z" fill="white"/>
<path opacity="0.1" d="M118.539 252.118L111.722 280.724H118.539V252.118Z" fill="white"/>
<path d="M107.378 243.359H105.724V280.724H107.378V243.359Z" fill="#7A2544"/>
<path d="M118.543 262.865V261.211H94.5542V262.865H118.543Z" fill="#7A2544"/>
<path d="M77.895 241.375H49.9363V282.709H77.895V241.375Z" fill="#7A2544"/>
<path d="M75.9246 243.359H51.9353V280.724H75.9246V243.359Z" fill="#50B7A4"/>
<path opacity="0.1" d="M70.8333 243.359L58.6517 280.724H51.9353V243.359H70.8333Z" fill="white"/>
<path opacity="0.1" d="M75.9104 252.118L69.0933 280.724H75.9104V252.118Z" fill="white"/>
<path d="M64.7499 243.359H63.0959V280.724H64.7499V243.359Z" fill="#7A2544"/>
<path d="M75.9146 262.866V261.212H51.9253V262.866H75.9146Z" fill="#7A2544"/>
<path d="M546.521 241.375H518.562V282.709H546.521V241.375Z" fill="#7A2544"/>
<path d="M544.536 243.359H520.547V280.724H544.536V243.359Z" fill="#50B7A4"/>
<path opacity="0.1" d="M539.445 243.359L527.263 280.724H520.547V243.359H539.445Z" fill="white"/>
<path opacity="0.1" d="M544.522 252.118L537.705 280.724H544.522V252.118Z" fill="white"/>
<path d="M533.361 243.359H531.707V280.724H533.361V243.359Z" fill="#7A2544"/>
<path d="M544.528 262.863V261.21H520.538V262.863H544.528Z" fill="#7A2544"/>
<path d="M503.878 241.375H475.919V282.709H503.878V241.375Z" fill="#7A2544"/>
<path d="M501.908 243.359H477.918V280.724H501.908V243.359Z" fill="#50B7A4"/>
<path opacity="0.1" d="M496.816 243.359L484.635 280.724H477.918V243.359H496.816Z" fill="white"/>
<path opacity="0.1" d="M501.893 252.118L495.076 280.724H501.893V252.118Z" fill="white"/>
<path d="M490.733 243.359H489.079V280.724H490.733V243.359Z" fill="#7A2544"/>
<path d="M501.899 262.864V261.21H477.91V262.864H501.899Z" fill="#7A2544"/>
<path d="M461.25 241.375H433.291V282.709H461.25V241.375Z" fill="#7A2544"/>
<path d="M459.279 243.359H435.29V280.724H459.279V243.359Z" fill="#50B7A4"/>
<path opacity="0.1" d="M454.188 243.359L442.006 280.724H435.29V243.359H454.188Z" fill="white"/>
<path opacity="0.1" d="M459.265 252.118L452.448 280.724H459.265V252.118Z" fill="white"/>
<path d="M448.104 243.359H446.45V280.724H448.104V243.359Z" fill="#7A2544"/>
<path d="M459.27 262.865V261.211H435.28V262.865H459.27Z" fill="#7A2544"/>
<path d="M163.152 182.451H135.193V223.785H163.152V182.451Z" fill="#7A2544"/>
<path d="M161.182 184.436H137.192V221.8H161.182V184.436Z" fill="#50B7A4"/>
<path opacity="0.1" d="M156.09 184.436L143.909 221.8H137.192V184.436H156.09Z" fill="white"/>
<path opacity="0.1" d="M161.167 193.209L154.35 221.8H161.167V193.209Z" fill="white"/>
<path d="M150.007 184.436H148.353V221.8H150.007V184.436Z" fill="#7A2544"/>
<path d="M161.175 203.944V202.29H137.186V203.944H161.175Z" fill="#7A2544"/>
<path d="M120.523 182.451H92.5647V223.785H120.523V182.451Z" fill="#7A2544"/>
<path d="M118.553 184.436H94.5637V221.8H118.553V184.436Z" fill="#50B7A4"/>
<path opacity="0.1" d="M113.462 184.436L101.28 221.8H94.5637V184.436H113.462Z" fill="white"/>
<path opacity="0.1" d="M118.539 193.209L111.722 221.8H118.539V193.209Z" fill="white"/>
<path d="M107.378 184.436H105.724V221.8H107.378V184.436Z" fill="#7A2544"/>
<path d="M118.546 203.944V202.29H94.5566V203.944H118.546Z" fill="#7A2544"/>
<path d="M77.895 182.451H49.9363V223.785H77.895V182.451Z" fill="#7A2544"/>
<path d="M75.9246 184.436H51.9353V221.8H75.9246V184.436Z" fill="#50B7A4"/>
<path opacity="0.1" d="M70.8333 184.436L58.6517 221.8H51.9353V184.436H70.8333Z" fill="white"/>
<path opacity="0.1" d="M75.9104 193.209L69.0933 221.8H75.9104V193.209Z" fill="white"/>
<path d="M64.7499 184.436H63.0959V221.8H64.7499V184.436Z" fill="#7A2544"/>
<path d="M75.917 203.945V202.291H51.9277V203.945H75.917Z" fill="#7A2544"/>
<path d="M546.521 182.451H518.562V223.785H546.521V182.451Z" fill="#7A2544"/>
<path d="M544.536 184.436H520.547V221.8H544.536V184.436Z" fill="#50B7A4"/>
<path opacity="0.1" d="M539.445 184.436L527.263 221.8H520.547V184.436H539.445Z" fill="white"/>
<path opacity="0.1" d="M544.522 193.209L537.705 221.8H544.522V193.209Z" fill="white"/>
<path d="M533.361 184.436H531.707V221.8H533.361V184.436Z" fill="#7A2544"/>
<path d="M544.531 203.943V202.289H520.541V203.943H544.531Z" fill="#7A2544"/>
<path d="M503.878 182.451H475.919V223.785H503.878V182.451Z" fill="#7A2544"/>
<path d="M501.908 184.436H477.918V221.8H501.908V184.436Z" fill="#50B7A4"/>
<path opacity="0.1" d="M496.816 184.436L484.635 221.8H477.918V184.436H496.816Z" fill="white"/>
<path opacity="0.1" d="M501.893 193.209L495.076 221.8H501.893V193.209Z" fill="white"/>
<path d="M490.733 184.436H489.079V221.8H490.733V184.436Z" fill="#7A2544"/>
<path d="M501.901 203.943V202.289H477.912V203.943H501.901Z" fill="#7A2544"/>
<path d="M461.25 182.451H433.291V223.785H461.25V182.451Z" fill="#7A2544"/>
<path d="M459.279 184.436H435.29V221.8H459.279V184.436Z" fill="#50B7A4"/>
<path opacity="0.1" d="M454.188 184.436L442.006 221.8H435.29V184.436H454.188Z" fill="white"/>
<path opacity="0.1" d="M459.265 193.209L452.448 221.8H459.265V193.209Z" fill="white"/>
<path d="M448.104 184.436H446.45V221.8H448.104V184.436Z" fill="#7A2544"/>
<path d="M459.272 203.944V202.29H435.283V203.944H459.272Z" fill="#7A2544"/>
<path opacity="0.1" d="M277.044 192.03V236.427L294.935 192.03H277.044Z" fill="white"/>
<path opacity="0.1" d="M321.441 192.03L303.55 236.427V192.03H321.441Z" fill="white"/>
<path opacity="0.1" d="M294.935 244.869V256.634H285.99L290.462 244.869H294.935Z" fill="white"/>
<path opacity="0.1" d="M321.441 244.869V256.634H312.496L316.968 244.869H321.441Z" fill="white"/>
<path d="M335.593 145.561H262.906V166.127H335.593V145.561Z" fill="#7A2544"/>
<path d="M297.883 147.546H264.891V164.128H297.883V147.546Z" fill="#50B7A4"/>
<path d="M333.594 147.546H301.91V164.128H333.594V147.546Z" fill="#50B7A4"/>
<path opacity="0.1" d="M264.891 147.546V164.128H278.842L283.818 147.546H264.891Z" fill="white"/>
<path opacity="0.1" d="M297.883 147.546L292.763 164.128H297.883V147.546Z" fill="white"/>
<path opacity="0.1" d="M301.91 147.546V164.128H315.861L320.837 147.546H301.91Z" fill="white"/>
<path opacity="0.1" d="M333.594 147.546L328.474 164.128H333.594V147.546Z" fill="white"/>
<path d="M308.364 85.5734C314.155 79.7828 314.155 70.3944 308.364 64.6038C302.574 58.8132 293.185 58.8131 287.394 64.6037C281.604 70.3944 281.604 79.7828 287.394 85.5734C293.185 91.364 302.574 91.364 308.364 85.5734Z" fill="#FFC33A"/>
<path d="M87.9624 277.617C70.8333 277.617 56.9546 293.97 56.9546 314.148H118.97C118.97 293.984 105.077 277.617 87.9624 277.617Z" fill="#7A8535"/>
<path d="M121.329 292.805C113.591 292.805 107.321 302.369 107.321 314.148H135.337C135.337 302.369 129.067 292.805 121.329 292.805Z" fill="#7A8535"/>
<path d="M33.9146 292.805C26.1771 292.805 19.9065 302.369 19.9065 314.148H47.9228C47.9228 302.369 41.6522 292.805 33.9146 292.805Z" fill="#7A8535"/>
<path d="M174.442 283.514C164.446 283.514 156.349 297.234 156.349 314.162H192.549C192.535 297.234 184.438 283.514 174.442 283.514Z" fill="#7A8535"/>
<path d="M53.1004 298.816C46.6573 298.816 41.4509 305.691 41.4509 314.162H64.7643C64.7499 305.691 59.5292 298.816 53.1004 298.816Z" fill="#7A8535"/>
<path d="M139.882 307.561C136.085 307.561 133.021 310.524 133.021 314.177H146.742C146.756 310.524 143.679 307.561 139.882 307.561Z" fill="#7A8535"/>
<path d="M195.929 307.561C192.132 307.561 189.069 310.524 189.069 314.177H202.789C202.789 310.524 199.711 307.561 195.929 307.561Z" fill="#7A8535"/>
<path d="M152.437 298.816C148.396 298.816 145.131 305.691 145.131 314.177H159.744C159.744 305.691 156.479 298.816 152.437 298.816Z" fill="#7A8535"/>
<path d="M510.537 277.617C527.666 277.617 541.545 293.97 541.545 314.148H479.529C479.515 293.984 493.408 277.617 510.537 277.617Z" fill="#7A8535"/>
<path d="M477.156 292.805C484.894 292.805 491.164 302.369 491.164 314.148H463.148C463.148 302.369 469.419 292.805 477.156 292.805Z" fill="#7A8535"/>
<path d="M564.57 292.805C572.308 292.805 578.579 302.369 578.579 314.148H550.562C550.562 302.369 556.833 292.805 564.57 292.805Z" fill="#7A8535"/>
<path d="M424.058 283.514C434.053 283.514 442.15 297.234 442.15 314.162H405.95C405.95 297.234 414.062 283.514 424.058 283.514Z" fill="#7A8535"/>
<path d="M545.385 298.816C551.828 298.816 557.034 305.691 557.034 314.162H533.721C533.735 305.691 538.956 298.816 545.385 298.816Z" fill="#7A8535"/>
<path d="M458.603 307.561C462.4 307.561 465.463 310.524 465.463 314.177H451.743C451.743 310.524 454.806 307.561 458.603 307.561Z" fill="#7A8535"/>
<path d="M402.556 307.561C406.353 307.561 409.417 310.524 409.417 314.177H395.696C395.696 310.524 398.774 307.561 402.556 307.561Z" fill="#7A8535"/>
<path d="M446.048 298.816C450.089 298.816 453.354 305.691 453.354 314.177H438.741C438.741 305.691 442.006 298.816 446.048 298.816Z" fill="#7A8535"/>
</svg>
