<svg width="660" height="178" viewBox="0 0 660 178" fill="none" xmlns="http://www.w3.org/2000/svg">
<path d="M660 89.3554V178H0V0C21.8455 5.20841 38.1912 26.4773 38.1912 51.9245C38.1912 54.3619 38.0373 56.7702 37.7297 59.1205C45.941 53.4189 55.2483 52.1566 62.5751 56.7847C71.6709 62.5299 75.1132 75.6743 72.1325 89.2829C84.9013 80.6071 101.362 75.3551 119.362 75.3551C155.13 75.3551 184.898 96.0437 191.398 123.42C195.456 120.577 200.263 118.908 205.436 118.908C210.436 118.908 215.109 120.461 219.071 123.13C223.609 106.577 237.628 94.5203 254.243 94.5203C272.877 94.5203 288.261 109.71 290.626 129.383C295.587 124.146 303.318 120.765 312.01 120.765C324.356 120.765 334.798 127.584 338.048 136.898C342.413 135.477 347.74 134.65 353.47 134.65C355.682 134.65 357.855 134.78 359.913 135.012C359.124 132.619 358.682 130.051 358.682 127.367C358.682 115.049 367.816 105.068 379.066 105.068C387.95 105.068 395.488 111.263 398.296 119.924C400.258 116.123 403.219 113.7 406.527 113.7C410.95 113.7 414.738 118.038 416.392 124.218C419.026 122.753 422.007 121.912 425.18 121.912C435.872 121.912 444.526 131.385 444.526 143.064C444.526 143.122 444.526 143.166 444.526 143.224C454.564 133.547 469.621 127.367 486.467 127.367C495.389 127.367 503.812 129.108 511.254 132.183C509.735 120.765 513.1 110.204 520.812 105.329C528.485 100.483 538.484 102.543 546.753 109.623C557.58 83.4942 581.637 65.3155 609.578 65.3155C629.462 65.3155 647.423 74.5717 660 89.3554Z" fill="#896D00"/>
</svg>
