<svg width="916" height="144" viewBox="0 0 916 144" fill="none" xmlns="http://www.w3.org/2000/svg">
<path d="M916 72.2875V144H0V0C30.3053 4.21355 53.0006 21.4198 53.0006 42.0064C53.0006 43.9782 52.7892 45.9265 52.3665 47.8279C63.7622 43.2153 76.676 42.1941 86.8611 45.9382C99.4867 50.586 104.272 61.2197 100.14 72.2289C117.858 65.2102 140.707 60.9614 165.67 60.9614C215.308 60.9614 256.624 77.6983 265.637 99.8458C271.249 97.5454 277.955 96.1956 285.123 96.1956C292.061 96.1956 298.537 97.4515 304.033 99.611C310.317 86.2192 329.784 76.4659 352.844 76.4659C378.71 76.4659 400.041 88.7544 403.327 104.67C410.207 100.433 420.93 97.6979 432.999 97.6979C450.14 97.6979 464.611 103.214 469.127 110.749C475.199 109.599 482.579 108.93 490.515 108.93C493.59 108.93 496.588 109.036 499.47 109.224C498.375 107.287 497.76 105.21 497.76 103.038C497.76 93.0736 510.443 84.9986 526.067 84.9986C538.385 84.9986 548.858 90.0103 552.759 97.0172C555.488 93.9421 559.581 91.9821 564.174 91.9821C570.304 91.9821 575.589 95.4914 577.857 100.491C581.527 99.3059 585.659 98.6251 590.04 98.6251C604.876 98.6251 616.906 106.289 616.906 115.738C616.906 115.784 616.887 115.82 616.887 115.867C630.819 108.038 651.727 103.038 675.114 103.038C687.49 103.038 699.174 104.447 709.513 106.935C707.399 97.6979 712.069 89.1535 722.772 85.2099C733.438 81.2898 747.293 82.9564 758.766 88.684C773.794 67.5458 807.174 52.8395 845.954 52.8395C873.626 52.8395 898.551 60.3276 916 72.2875Z" fill="#896D00"/>
</svg>
