<svg width="1436" height="178" viewBox="0 0 1436 178" fill="none" xmlns="http://www.w3.org/2000/svg">
<path d="M909 106.288V178H-7V34C23.3053 38.2135 46.0006 55.4198 46.0006 76.0064C46.0006 77.9782 45.7892 79.9265 45.3665 81.8279C56.7622 77.2153 69.676 76.1941 79.8611 79.9382C92.4867 84.586 97.2717 95.2197 93.1401 106.229C110.858 99.2102 133.707 94.9614 158.67 94.9614C208.308 94.9614 249.625 111.698 258.637 133.846C264.249 131.545 270.955 130.196 278.123 130.196C285.061 130.196 291.537 131.451 297.033 133.611C303.317 120.219 322.784 110.466 345.844 110.466C371.71 110.466 393.041 122.754 396.327 138.67C403.207 134.433 413.93 131.698 425.999 131.698C443.14 131.698 457.611 137.214 462.127 144.749C468.199 143.599 475.579 142.93 483.515 142.93C486.59 142.93 489.588 143.036 492.47 143.224C491.375 141.287 490.76 139.21 490.76 137.038C490.76 127.074 503.443 118.999 519.067 118.999C531.385 118.999 541.858 124.01 545.759 131.017C548.488 127.942 552.581 125.982 557.174 125.982C563.304 125.982 568.589 129.491 570.857 134.491C574.527 133.306 578.659 132.625 583.04 132.625C597.876 132.625 609.906 140.289 609.906 149.738C609.906 149.784 609.887 149.82 609.887 149.867C623.819 142.038 644.727 137.038 668.114 137.038C680.49 137.038 692.174 138.447 702.513 140.935C700.399 131.698 705.069 123.153 715.772 119.21C726.438 115.29 740.293 116.956 751.766 122.684C766.794 101.546 800.174 86.8395 838.954 86.8395C866.626 86.8395 891.551 94.3276 909 106.288Z" fill="#896D00"/>
<path d="M1436 89.3554V178H776V0C797.846 5.20841 814.191 26.4773 814.191 51.9245C814.191 54.3619 814.037 56.7702 813.73 59.1205C821.941 53.4189 831.248 52.1566 838.575 56.7847C847.671 62.5299 851.113 75.6743 848.132 89.2829C860.901 80.6071 877.362 75.3551 895.362 75.3551C931.13 75.3551 960.898 96.0437 967.398 123.42C971.456 120.577 976.263 118.908 981.436 118.908C986.436 118.908 991.109 120.461 995.071 123.13C999.609 106.577 1013.63 94.5203 1030.24 94.5203C1048.88 94.5203 1064.26 109.71 1066.63 129.383C1071.59 124.146 1079.32 120.765 1088.01 120.765C1100.36 120.765 1110.8 127.584 1114.05 136.898C1118.41 135.477 1123.74 134.65 1129.47 134.65C1131.68 134.65 1133.85 134.78 1135.91 135.012C1135.12 132.619 1134.68 130.051 1134.68 127.367C1134.68 115.049 1143.82 105.068 1155.07 105.068C1163.95 105.068 1171.49 111.263 1174.3 119.924C1176.26 116.123 1179.22 113.7 1182.53 113.7C1186.95 113.7 1190.74 118.038 1192.39 124.218C1195.03 122.753 1198.01 121.912 1201.18 121.912C1211.87 121.912 1220.53 131.385 1220.53 143.064C1220.53 143.122 1220.53 143.166 1220.53 143.224C1230.56 133.547 1245.62 127.367 1262.47 127.367C1271.39 127.367 1279.81 129.108 1287.25 132.183C1285.74 120.765 1289.1 110.204 1296.81 105.329C1304.48 100.483 1314.48 102.543 1322.75 109.623C1333.58 83.4942 1357.64 65.3155 1385.58 65.3155C1405.46 65.3155 1423.42 74.5717 1436 89.3554Z" fill="#896D00"/>
</svg>
