<svg width="597" height="315" viewBox="0 0 597 315" fill="none" xmlns="http://www.w3.org/2000/svg">
<path d="M578.562 75.0889H19.8904V314.119H578.562V75.0889Z" fill="#CC5745"/>
<path d="M586.472 229.754H9.93799V235.391H586.472V229.754Z" fill="#FCAF79"/>
<path d="M596.425 170.701H0V176.339H596.425V170.701Z" fill="#FCAF79"/>
<path d="M576.534 64.8632H19.8904L0 170.701H596.425L576.534 64.8632Z" fill="#783526"/>
<path d="M576.534 64.8632H19.8904L17.5461 77.3325H578.879L576.534 64.8632Z" fill="#5C281D"/>
<path d="M578.562 289.065H19.8904V314.119H578.562V289.065Z" fill="#EB9B6A"/>
<path d="M389.941 115.503H208.497V314.119H389.941V115.503Z" fill="#D36147"/>
<path d="M332.902 178.266H263.537V277.905H332.902V178.266Z" fill="#DEB2A9"/>
<path d="M381.168 115.503H217.27V140.988H381.168V115.503Z" fill="#B6513D"/>
<path d="M299.234 0L202.773 115.503H208.497H389.956H395.68L299.234 0Z" fill="#5C281D"/>
<path d="M208.497 115.502L299.234 10.2544L389.956 115.502H208.497Z" fill="#F04848"/>
<path d="M226.043 115.503H208.497V304.929H226.043V115.503Z" fill="#FCBC90"/>
<path d="M389.956 115.503H372.41V304.929H389.956V115.503Z" fill="#FCBC90"/>
<path d="M231.782 269.865H202.773V314.119H231.782V269.865Z" fill="#FCD89C"/>
<path d="M395.68 269.865H366.671V314.119H395.68V269.865Z" fill="#FCD89C"/>
<path d="M231.782 115.503H202.773V124.693H231.782V115.503Z" fill="#F8EABD"/>
<path d="M395.68 115.503H366.671V124.693H395.68V115.503Z" fill="#F8EABD"/>
<path d="M328.918 182.25H267.507V277.905H328.918V182.25Z" fill="#5C5A49"/>
<path d="M366.671 301.592H231.781V314.119H366.671V301.592Z" fill="#ADB6BB"/>
<path d="M366.671 296.041H231.781V301.592H366.671V296.041Z" fill="#C3D0D9"/>
<path d="M366.671 283.514H231.781V296.041H366.671V283.514Z" fill="#ADB6BB"/>
<path d="M366.671 277.963H231.781V283.514H366.671V277.963Z" fill="#C3D0D9"/>
<path d="M231.782 269.865H202.773V274.842H231.782V269.865Z" fill="#F8EABD"/>
<path d="M395.68 269.865H366.671V274.842H395.68V269.865Z" fill="#F8EABD"/>
<path d="M294.919 192.03H277.028V236.427H294.919V192.03Z" fill="#62C1AB"/>
<path d="M321.425 192.03H303.534V236.427H321.425V192.03Z" fill="#62C1AB"/>
<path d="M294.919 244.869H277.028V256.634H294.919V244.869Z" fill="#62C1AB"/>
<path d="M321.425 244.869H303.534V256.634H321.425V244.869Z" fill="#62C1AB"/>
<path d="M163.136 241.375H135.177V282.709H163.136V241.375Z" fill="#7A2544"/>
<path d="M161.166 243.359H137.176V280.724H161.166V243.359Z" fill="#50B7A4"/>
<path opacity="0.1" d="M156.074 243.359L143.893 280.724H137.176V243.359H156.074Z" fill="white"/>
<path opacity="0.1" d="M161.151 252.118L154.334 280.724H161.151V252.118Z" fill="white"/>
<path d="M149.991 243.359H148.337V280.724H149.991V243.359Z" fill="#7A2544"/>
<path d="M161.156 262.864V261.211H137.167V262.864H161.156Z" fill="#7A2544"/>
<path d="M120.507 241.375H92.5486V282.709H120.507V241.375Z" fill="#7A2544"/>
<path d="M118.537 243.359H94.5476V280.724H118.537V243.359Z" fill="#50B7A4"/>
<path opacity="0.1" d="M113.446 243.359L101.264 280.724H94.5476V243.359H113.446Z" fill="white"/>
<path opacity="0.1" d="M118.523 252.118L111.706 280.724H118.523V252.118Z" fill="white"/>
<path d="M107.362 243.359H105.708V280.724H107.362V243.359Z" fill="#7A2544"/>
<path d="M118.527 262.865V261.211H94.5381V262.865H118.527Z" fill="#7A2544"/>
<path d="M77.8789 241.375H49.9202V282.709H77.8789V241.375Z" fill="#7A2544"/>
<path d="M75.9085 243.359H51.9192V280.724H75.9085V243.359Z" fill="#50B7A4"/>
<path opacity="0.1" d="M70.8172 243.359L58.6356 280.724H51.9192V243.359H70.8172Z" fill="white"/>
<path opacity="0.1" d="M75.8943 252.118L69.0771 280.724H75.8943V252.118Z" fill="white"/>
<path d="M64.7338 243.359H63.0798V280.724H64.7338V243.359Z" fill="#7A2544"/>
<path d="M75.8984 262.866V261.212H51.9091V262.866H75.8984Z" fill="#7A2544"/>
<path d="M546.505 241.375H518.546V282.709H546.505V241.375Z" fill="#7A2544"/>
<path d="M544.52 243.359H520.531V280.724H544.52V243.359Z" fill="#50B7A4"/>
<path opacity="0.1" d="M539.429 243.359L527.247 280.724H520.531V243.359H539.429Z" fill="white"/>
<path opacity="0.1" d="M544.506 252.118L537.688 280.724H544.506V252.118Z" fill="white"/>
<path d="M533.345 243.359H531.691V280.724H533.345V243.359Z" fill="#7A2544"/>
<path d="M544.512 262.863V261.21H520.522V262.863H544.512Z" fill="#7A2544"/>
<path d="M503.862 241.375H475.903V282.709H503.862V241.375Z" fill="#7A2544"/>
<path d="M501.891 243.359H477.902V280.724H501.891V243.359Z" fill="#50B7A4"/>
<path opacity="0.1" d="M496.8 243.359L484.619 280.724H477.902V243.359H496.8Z" fill="white"/>
<path opacity="0.1" d="M501.877 252.118L495.06 280.724H501.877V252.118Z" fill="white"/>
<path d="M490.717 243.359H489.063V280.724H490.717V243.359Z" fill="#7A2544"/>
<path d="M501.883 262.864V261.21H477.894V262.864H501.883Z" fill="#7A2544"/>
<path d="M461.233 241.375H433.275V282.709H461.233V241.375Z" fill="#7A2544"/>
<path d="M459.263 243.359H435.274V280.724H459.263V243.359Z" fill="#50B7A4"/>
<path opacity="0.1" d="M454.172 243.359L441.99 280.724H435.274V243.359H454.172Z" fill="white"/>
<path opacity="0.1" d="M459.249 252.118L452.432 280.724H459.249V252.118Z" fill="white"/>
<path d="M448.088 243.359H446.434V280.724H448.088V243.359Z" fill="#7A2544"/>
<path d="M459.253 262.865V261.211H435.264V262.865H459.253Z" fill="#7A2544"/>
<path d="M163.136 182.451H135.177V223.785H163.136V182.451Z" fill="#7A2544"/>
<path d="M161.166 184.436H137.176V221.8H161.166V184.436Z" fill="#50B7A4"/>
<path opacity="0.1" d="M156.074 184.436L143.893 221.8H137.176V184.436H156.074Z" fill="white"/>
<path opacity="0.1" d="M161.151 193.209L154.334 221.8H161.151V193.209Z" fill="white"/>
<path d="M149.991 184.436H148.337V221.8H149.991V184.436Z" fill="#7A2544"/>
<path d="M161.159 203.944V202.29H137.17V203.944H161.159Z" fill="#7A2544"/>
<path d="M120.507 182.451H92.5486V223.785H120.507V182.451Z" fill="#7A2544"/>
<path d="M118.537 184.436H94.5476V221.8H118.537V184.436Z" fill="#50B7A4"/>
<path opacity="0.1" d="M113.446 184.436L101.264 221.8H94.5476V184.436H113.446Z" fill="white"/>
<path opacity="0.1" d="M118.523 193.209L111.706 221.8H118.523V193.209Z" fill="white"/>
<path d="M107.362 184.436H105.708V221.8H107.362V184.436Z" fill="#7A2544"/>
<path d="M118.53 203.944V202.29H94.5405V203.944H118.53Z" fill="#7A2544"/>
<path d="M77.8789 182.451H49.9202V223.785H77.8789V182.451Z" fill="#7A2544"/>
<path d="M75.9085 184.436H51.9192V221.8H75.9085V184.436Z" fill="#50B7A4"/>
<path opacity="0.1" d="M70.8172 184.436L58.6356 221.8H51.9192V184.436H70.8172Z" fill="white"/>
<path opacity="0.1" d="M75.8943 193.209L69.0771 221.8H75.8943V193.209Z" fill="white"/>
<path d="M64.7338 184.436H63.0798V221.8H64.7338V184.436Z" fill="#7A2544"/>
<path d="M75.9009 203.945V202.291H51.9116V203.945H75.9009Z" fill="#7A2544"/>
<path d="M546.505 182.451H518.546V223.785H546.505V182.451Z" fill="#7A2544"/>
<path d="M544.52 184.436H520.531V221.8H544.52V184.436Z" fill="#50B7A4"/>
<path opacity="0.1" d="M539.429 184.436L527.247 221.8H520.531V184.436H539.429Z" fill="white"/>
<path opacity="0.1" d="M544.506 193.209L537.688 221.8H544.506V193.209Z" fill="white"/>
<path d="M533.345 184.436H531.691V221.8H533.345V184.436Z" fill="#7A2544"/>
<path d="M544.514 203.943V202.289H520.525V203.943H544.514Z" fill="#7A2544"/>
<path d="M503.862 182.451H475.903V223.785H503.862V182.451Z" fill="#7A2544"/>
<path d="M501.891 184.436H477.902V221.8H501.891V184.436Z" fill="#50B7A4"/>
<path opacity="0.1" d="M496.8 184.436L484.619 221.8H477.902V184.436H496.8Z" fill="white"/>
<path opacity="0.1" d="M501.877 193.209L495.06 221.8H501.877V193.209Z" fill="white"/>
<path d="M490.717 184.436H489.063V221.8H490.717V184.436Z" fill="#7A2544"/>
<path d="M501.885 203.943V202.289H477.896V203.943H501.885Z" fill="#7A2544"/>
<path d="M461.233 182.451H433.275V223.785H461.233V182.451Z" fill="#7A2544"/>
<path d="M459.263 184.436H435.274V221.8H459.263V184.436Z" fill="#50B7A4"/>
<path opacity="0.1" d="M454.172 184.436L441.99 221.8H435.274V184.436H454.172Z" fill="white"/>
<path opacity="0.1" d="M459.249 193.209L452.432 221.8H459.249V193.209Z" fill="white"/>
<path d="M448.088 184.436H446.434V221.8H448.088V184.436Z" fill="#7A2544"/>
<path d="M459.256 203.944V202.29H435.267V203.944H459.256Z" fill="#7A2544"/>
<path opacity="0.1" d="M277.028 192.03V236.427L294.919 192.03H277.028Z" fill="white"/>
<path opacity="0.1" d="M321.425 192.03L303.534 236.427V192.03H321.425Z" fill="white"/>
<path opacity="0.1" d="M294.919 244.869V256.634H285.973L290.446 244.869H294.919Z" fill="white"/>
<path opacity="0.1" d="M321.425 244.869V256.634H312.479L316.952 244.869H321.425Z" fill="white"/>
<path d="M335.577 145.561H262.89V166.127H335.577V145.561Z" fill="#7A2544"/>
<path d="M297.867 147.546H264.875V164.128H297.867V147.546Z" fill="#50B7A4"/>
<path d="M333.578 147.546H301.894V164.128H333.578V147.546Z" fill="#50B7A4"/>
<path opacity="0.1" d="M264.875 147.546V164.128H278.825L283.802 147.546H264.875Z" fill="white"/>
<path opacity="0.1" d="M297.867 147.546L292.747 164.128H297.867V147.546Z" fill="white"/>
<path opacity="0.1" d="M301.894 147.546V164.128H315.845L320.821 147.546H301.894Z" fill="white"/>
<path opacity="0.1" d="M333.578 147.546L328.458 164.128H333.578V147.546Z" fill="white"/>
<path d="M308.348 85.5734C314.139 79.7828 314.139 70.3944 308.348 64.6038C302.557 58.8132 293.169 58.8131 287.378 64.6037C281.588 70.3944 281.588 79.7828 287.378 85.5734C293.169 91.364 302.557 91.364 308.348 85.5734Z" fill="#FFC33A"/>
<path d="M87.9463 277.617C70.8172 277.617 56.9385 293.97 56.9385 314.148H118.954C118.954 293.984 105.061 277.617 87.9463 277.617Z" fill="#7A8535"/>
<path d="M121.313 292.805C113.575 292.805 107.305 302.369 107.305 314.148H135.321C135.321 302.369 129.05 292.805 121.313 292.805Z" fill="#7A8535"/>
<path d="M33.8985 292.805C26.161 292.805 19.8904 302.369 19.8904 314.148H47.9067C47.9067 302.369 41.6361 292.805 33.8985 292.805Z" fill="#7A8535"/>
<path d="M174.426 283.514C164.43 283.514 156.333 297.234 156.333 314.162H192.533C192.519 297.234 184.421 283.514 174.426 283.514Z" fill="#7A8535"/>
<path d="M53.0843 298.816C46.6411 298.816 41.4348 305.691 41.4348 314.162H64.7482C64.7338 305.691 59.5131 298.816 53.0843 298.816Z" fill="#7A8535"/>
<path d="M139.866 307.561C136.069 307.561 133.005 310.524 133.005 314.177H146.726C146.74 310.524 143.662 307.561 139.866 307.561Z" fill="#7A8535"/>
<path d="M195.913 307.561C192.116 307.561 189.052 310.524 189.052 314.177H202.773C202.773 310.524 199.695 307.561 195.913 307.561Z" fill="#7A8535"/>
<path d="M152.421 298.816C148.38 298.816 145.115 305.691 145.115 314.177H159.727C159.727 305.691 156.463 298.816 152.421 298.816Z" fill="#7A8535"/>
<path d="M510.521 277.617C527.65 277.617 541.528 293.97 541.528 314.148H479.513C479.499 293.984 493.392 277.617 510.521 277.617Z" fill="#7A8535"/>
<path d="M477.14 292.805C484.878 292.805 491.148 302.369 491.148 314.148H463.132C463.132 302.369 469.402 292.805 477.14 292.805Z" fill="#7A8535"/>
<path d="M564.554 292.805C572.292 292.805 578.562 302.369 578.562 314.148H550.546C550.546 302.369 556.817 292.805 564.554 292.805Z" fill="#7A8535"/>
<path d="M424.041 283.514C434.037 283.514 442.134 297.234 442.134 314.162H405.934C405.934 297.234 414.046 283.514 424.041 283.514Z" fill="#7A8535"/>
<path d="M545.369 298.816C551.812 298.816 557.018 305.691 557.018 314.162H533.705C533.719 305.691 538.94 298.816 545.369 298.816Z" fill="#7A8535"/>
<path d="M458.587 307.561C462.384 307.561 465.447 310.524 465.447 314.177H451.727C451.727 310.524 454.79 307.561 458.587 307.561Z" fill="#7A8535"/>
<path d="M402.54 307.561C406.337 307.561 409.4 310.524 409.4 314.177H395.68C395.68 310.524 398.758 307.561 402.54 307.561Z" fill="#7A8535"/>
<path d="M446.031 298.816C450.073 298.816 453.338 305.691 453.338 314.177H438.725C438.725 305.691 441.99 298.816 446.031 298.816Z" fill="#7A8535"/>
<path d="M111.706 89.9167H107.305V314.162H111.706V89.9167Z" fill="#39262C"/>
<path d="M116.782 269.865H102.242V314.162H116.782V269.865Z" fill="#6A5B5E"/>
<path d="M163.74 131.193C146.395 122.147 129.05 140.24 111.706 131.193C111.706 121.14 111.706 111.087 111.706 101.034C129.05 110.081 146.395 91.9879 163.74 101.034C163.74 111.087 163.74 121.14 163.74 131.193Z" fill="#FFF4D4"/>
<path d="M163.984 115C146.651 110.398 128.817 119.102 111.484 114.5C111.484 109.386 111.484 106.114 111.484 101C128.817 105.602 146.651 94.7264 163.984 99.3286C163.984 104.443 163.984 109.886 163.984 115Z" fill="#FF4E4E"/>
</svg>
