<svg width="479" height="439" viewBox="0 0 479 439" fill="none" xmlns="http://www.w3.org/2000/svg">
<path d="M431.215 230.571C428.764 236.154 426.381 241.6 424.135 246.775C422.16 254.672 418.756 261.753 414.739 268.629C413.446 273.667 415.965 273.871 420.867 271.216L430.943 256.374C433.734 258.757 435.709 262.842 437.343 267.812L434.619 290.551C435.3 294.977 437.07 294.5 439.317 292.049L443.334 271.42L443.674 293.547C445.24 295.385 446.534 294.772 447.623 291.777L448.917 285.377C450.006 287.692 451.163 287.283 452.321 284.901C452.321 284.901 453.138 258.212 453.138 257.804C453.138 257.395 444.423 226.69 444.423 226.69L441.087 220.086L427.811 223.763L431.215 230.571Z" fill="#FFD391"/>
<path d="M430.262 150.643C428.832 136.346 428.764 121.504 427.13 104.279C425.836 89.233 420.934 78.8845 414.467 72.4848C396.765 66.6978 378.179 85.965 388.119 102.849C392.408 119.121 391.863 138.729 396.357 161.672C408.476 164.327 421.479 159.63 430.262 150.643Z" fill="#EA4A49"/>
<path d="M432.238 164.668C431.353 160.038 430.74 155.341 430.264 150.643C421.481 159.63 408.477 164.259 396.359 161.604C396.835 163.919 397.244 166.166 397.789 168.549C406.163 194.556 416.511 206.266 428.426 235.814C430.264 238.673 446.74 236.018 446.127 232.954C440.476 205.109 434.621 186.726 432.238 164.668Z" fill="#FFD391"/>
<path d="M307.783 260.527C308.123 260.527 308.463 260.255 308.531 259.847L309.348 253.923C309.485 252.97 309.212 251.949 308.531 251.2C307.851 250.451 306.966 250.043 305.944 250.043H297.162C295.528 250.043 294.098 251.2 293.826 252.834L292.464 259.847C292.396 260.255 292.668 260.664 293.077 260.732C293.485 260.8 293.894 260.527 293.962 260.119L295.324 253.107C295.46 252.221 296.209 251.609 297.162 251.609H305.944C306.489 251.609 306.966 251.813 307.374 252.221C307.715 252.63 307.919 253.175 307.783 253.719L306.966 259.642C306.898 260.051 307.238 260.459 307.646 260.527C307.715 260.527 307.783 260.527 307.783 260.527Z" fill="#B2B2B2"/>
<path d="M332.497 148.26C329.433 160.379 302.813 228.324 299.75 240.988C298.933 244.324 298.048 248.068 297.162 251.472C296.958 252.289 297.639 253.038 298.524 252.902C300.907 252.562 303.29 252.63 305.264 252.902C305.877 252.97 306.422 252.63 306.558 252.017C307.239 249.089 308.056 245.89 308.736 243.098C311.936 229.89 338.761 161.196 342.029 148.192H332.497V148.26Z" fill="#332821"/>
<path d="M407.727 305.121C403.642 328.473 388.528 380.624 388.528 380.624C355.44 423.379 338.352 437.2 303.153 490.44C293.009 504.125 270.61 489.487 272.312 471.173C292.532 410.58 322.489 376.675 341.211 338.821L361.568 261.14L412.289 231.865C412.221 231.865 415.012 263.795 407.727 305.121Z" fill="#2B6582"/>
<path d="M434.552 557.433C431.624 564.105 418.144 570.232 408.612 568.803C404.459 568.19 401.123 566.147 399.762 562.062C372.869 481.249 373.754 426.171 372.869 422.494L323.986 325.477C319.493 319.963 315.817 312.133 313.502 303.351L312.821 300.491C310.03 288.168 309.757 274.28 313.23 261.685L412.221 231.865V251.132C410.791 273.871 400.987 298.381 384.988 306.483L416.714 407.72C425.02 451.361 431.216 505.69 434.552 557.433Z" fill="#3A7D9E"/>
<path opacity="0.5" d="M408.68 568.802C404.527 568.19 401.191 566.147 399.829 562.062C372.937 481.249 373.822 426.171 372.937 422.494L324.054 325.477C319.56 319.963 315.884 312.133 313.569 303.351L312.888 300.491L346.316 292.662C348.631 338.617 359.048 381.781 386.212 419.09C377.294 457.216 390.842 511.409 408.68 568.802Z" fill="#2B6582"/>
<path d="M298.66 161.4C300.362 180.531 313.366 285.717 313.366 285.717C333.041 307.299 420.527 283.471 415.761 257.395C406.91 208.785 423.25 122.865 416.782 76.0929C415.352 69.6251 395.132 59.7533 379.541 65.4041C368.852 69.2847 367.15 68.672 345.909 78.2716C330.182 88.3477 307.783 101.964 296.005 115.24C295.528 120.346 296.685 139.001 298.66 161.4Z" fill="#EA4A49"/>
<path opacity="0.5" d="M311.119 256.579C311.8 258.349 312.549 260.051 313.298 261.617C313.23 261.821 313.162 261.957 313.162 262.161C318.404 267.948 327.459 270.399 338.08 270.467C339.033 269.923 340.054 269.378 341.28 268.969C320.174 251.472 316.021 193.262 325.553 151.732L298.728 161.4C301.792 196.462 307.034 240.647 311.119 256.579Z" fill="#EA4A49"/>
<path d="M356.666 295.113L351.083 327.248L347.338 348.693L346.794 351.757L346.453 353.936L346.521 354.889C346.113 354.821 345.636 354.753 345.636 354.753C345.364 354.685 316.293 348.217 316.293 348.217L313.57 347.604L309.893 346.787L291.511 342.702C287.767 341.885 285.18 338.277 285.588 334.396L288.039 312.746L289.469 299.742L290.218 293.002L291.035 285.581L320.106 289.734L350.266 294.092C350.266 294.16 352.377 294.432 352.377 294.432L353.33 294.568L356.666 295.113Z" fill="#332821"/>
<path d="M372.528 275.914C373.141 272.169 373.345 270.195 369.6 268.629C356.393 263.319 319.901 258.825 303.152 255.557C297.365 254.468 291.783 258.417 290.966 264.272C288.923 279.59 286.813 294.228 283.953 304.576C282.932 308.389 285.247 312.27 289.127 313.087L334.947 322.686C340.053 323.775 345.159 320.712 346.657 315.674C347.61 312.338 348.563 308.185 349.176 303.215C351.15 288.1 372.119 278.229 372.528 275.914Z" fill="#7D4E24"/>
<path d="M372.597 275.165L372.529 275.846C372.529 275.914 371.712 283.062 371.712 283.062L368.171 315.673L365.925 336.098L364.495 348.898C364.359 350.395 363.201 351.689 361.703 351.961L361.363 352.029L360.887 352.097L360.546 352.165L351.083 354.072C351.015 354.072 349.176 354.48 349.176 354.48L347.27 354.821C346.93 354.889 346.657 354.889 346.385 354.889C345.977 354.821 345.5 354.753 345.5 354.753C343.866 354.072 342.913 352.574 343.117 350.872L343.73 345.834L346.385 325.001L349.108 303.487C349.176 303.214 350.334 294.16 350.334 294.16C350.334 294.092 352.853 274.416 352.853 274.416C353.057 272.782 354.078 271.42 355.576 270.875C356.053 270.739 356.529 270.603 357.006 270.603C357.278 270.603 358.367 270.535 358.367 270.535L364.154 270.263L368.171 270.127C368.852 270.059 369.465 270.263 370.009 270.467C370.554 270.739 371.031 271.08 371.439 271.488C372.324 272.578 372.733 273.871 372.597 275.165Z" fill="#CA9E67"/>
<path d="M361.091 348.966C361.227 348.966 361.364 348.762 361.432 348.557L369.533 274.824C369.602 274.28 369.329 273.939 369.193 273.735C369.057 273.599 368.716 273.327 368.308 273.327L357.143 273.735C356.53 273.803 356.053 274.212 355.985 274.824L346.249 351.349C346.249 351.485 346.249 351.621 346.386 351.757C346.658 351.825 361.091 348.966 361.091 348.966Z" fill="#7D4E24"/>
<path d="M311.798 335.894L303.492 338.754L300.769 332.013C305.467 325.205 307.373 311.521 308.939 297.087L318.675 298.926C317.245 313.972 315.611 328.405 311.798 335.894Z" fill="#CA9E67"/>
<path d="M370.622 272.918C370.962 272.918 371.303 272.646 371.303 272.237L372.12 266.314C372.256 265.361 371.983 264.34 371.303 263.591C370.622 262.842 369.737 262.433 368.716 262.433H359.933C358.299 262.433 356.869 263.591 356.597 265.225L355.235 272.237C355.167 272.646 355.44 273.054 355.848 273.122C356.257 273.19 356.665 272.918 356.733 272.51L358.095 265.497C358.231 264.612 358.98 263.999 359.933 263.999H368.716C369.26 263.999 369.737 264.204 370.145 264.612C370.486 265.021 370.69 265.565 370.554 266.11L369.737 272.033C369.669 272.442 369.941 272.85 370.418 272.918C370.486 272.918 370.554 272.918 370.622 272.918Z" fill="#B2B2B2"/>
<path d="M369.125 264.544C369.057 264.884 368.717 265.157 368.376 265.089C365.517 264.884 363.27 264.816 360.411 264.884C360.206 264.884 360.002 264.816 359.866 264.68C359.73 264.544 359.662 264.34 359.73 264.135C359.73 263.999 359.798 263.863 359.798 263.727C370.963 205.381 397.583 107.343 383.899 74.527L394.043 75.2759C406.638 114.355 378.044 217.431 369.125 264.544Z" fill="#332821"/>
<path d="M271.495 180.939C269.248 191.832 267.546 203.066 266.593 214.64C261.895 241.464 266.933 290.279 279.12 316.082C282.116 312.338 287.562 310.704 296.005 311.657C294.234 273.395 300.702 243.507 296.005 222.401L304.855 203.066C291.852 201.772 277.827 193.534 271.495 180.939Z" fill="#FFD391"/>
<path d="M296.005 115.24C284.431 135.392 276.397 157.383 271.495 180.939C277.827 193.535 291.784 201.772 304.855 203.066L323.033 163.238C341.688 122.661 311.255 95.9049 296.005 115.24Z" fill="#EA4A49"/>
<path d="M328.956 339.571C327.458 340.388 325.28 340.524 323.237 338.822C318.744 334.124 313.978 330.379 307.851 332.49C306.762 334.464 306.693 337.12 307.306 340.251L307.442 340.932C309.008 347.604 313.57 356.183 318.199 364.897C318.744 366.395 318.336 367.484 317.587 368.097C316.565 368.982 314.727 369.05 313.366 368.233C313.638 370.684 310.506 371.569 308.396 369.39L305.264 365.986C304.923 368.778 301.587 368.029 300.566 365.986L294.643 358.634C290.558 354.753 287.29 350.055 284.431 344.745C284.022 343.996 283.614 343.247 283.273 342.43C280.482 333.715 279.052 325.001 279.188 316.286C281.231 309.07 287.699 307.98 296.073 311.929L306.081 317.103C315.408 321.665 320.174 328.269 330.182 336.371C330.999 337.256 330.318 338.754 328.956 339.571Z" fill="#FFD391"/>
<path opacity="0.15" d="M317.586 367.961C316.565 368.846 314.727 368.914 313.365 368.097C313.637 370.548 310.506 371.433 308.395 369.254L305.263 365.85C304.923 368.642 301.587 367.893 300.566 365.85L294.642 358.497C290.558 354.617 287.29 349.919 284.43 344.609C289.264 346.583 294.302 345.221 299.408 342.566C303.697 352.506 311.527 366.123 317.586 367.961Z" fill="black"/>
<path opacity="0.15" d="M328.888 339.571C327.458 340.388 325.279 340.524 323.169 338.822C318.675 334.124 313.91 330.38 307.782 332.49C306.693 334.464 306.625 337.12 307.238 340.251L304.719 329.563C315.884 326.907 323.645 337.46 328.888 339.571Z" fill="black"/>
<path d="M400.238 19.7212C407.319 38.7842 403.438 50.4262 385.26 54.5111L387.439 31.4313L400.238 19.7212Z" fill="black"/>
<path d="M334.675 85.8288C338.147 75.5484 340.121 64.9957 341.687 54.3749L382.672 71.94L376.749 98.6963C369.805 124.976 328.82 106.253 334.675 85.8288Z" fill="#FFD391"/>
<path opacity="0.5" d="M387.644 76.91C385.874 86.9862 394.384 122.253 379.61 127.495C362.249 127.495 345.569 86.4415 349.995 75.6165L355.577 57.779L387.644 76.91Z" fill="#EA4A49"/>
<path d="M361.977 3.65393C343.05 3.85818 332.225 13.0493 331.476 33.4739C332.021 54.9197 338.625 73.9146 355.305 85.5566C363.407 92.4329 377.295 96.3816 387.848 92.7052C398.741 88.8245 398.333 66.3575 399.967 45.7286C402.758 24.8274 383.287 9.30474 361.977 3.65393Z" fill="#FFD391"/>
<path d="M402.553 30.3419C397.311 51.3112 376.342 33.4737 359.185 44.503C352.036 49.0645 353.057 57.1662 346.249 62.749C342.301 65.9488 342.437 65.8807 341.892 70.9188C341.552 74.2548 340.803 76.6377 336.582 74.9357C326.71 57.8471 314.047 18.5637 347.271 3.58567C375.456 -7.5117 402.553 8.75991 402.553 30.3419Z" fill="black"/>
<path d="M342.914 68.1956C341.076 66.6297 339.305 64.8596 338.284 62.6129C337.263 60.4342 337.059 57.711 338.216 55.6004C339.374 53.4899 342.029 52.1282 344.344 52.9452C345.909 53.4899 347.067 54.9877 347.611 56.5536C348.156 58.1195 348.292 59.8215 348.36 61.5236C348.428 63.0214 348.565 64.5872 348.633 66.085C348.701 67.1063 348.701 68.3318 348.02 69.0807C347.339 69.7615 346.25 69.9657 345.365 69.6934C344.48 69.4211 343.663 68.8083 342.914 68.1956Z" fill="#FFD391"/>
<path d="M172.48 407.108C169.892 413.439 167.442 420.043 165.127 427.124C164.786 428.077 164.514 428.962 164.174 429.983C152.94 439.242 142.183 448.365 131.835 457.829C129.792 459.599 127.818 461.437 125.911 463.275C113.044 475.326 100.993 488.057 89.9642 502.354C86.492 505.622 96.8404 535.987 88.6706 535.919C75.3265 535.851 62.5271 492.959 70.9012 484.517C81.522 473.351 89.011 460.416 95.8192 448.229C101.47 438.085 106.576 428.485 112.567 420.996C113.793 419.43 115.018 418.001 116.312 416.639C120.193 412.622 124.482 409.49 129.52 407.652L115.359 320.031L145.587 287.487L150.081 282.654L191.134 292.525C200.529 347.4 185.96 373.679 172.48 407.108Z" fill="#F29755"/>
<path d="M219.661 637.429C217.55 644.373 194.471 638.042 173.91 618.026C154.711 560.496 125.435 525.774 139.801 471.853C138.575 469.743 137.418 467.564 136.26 465.522C134.831 462.935 133.401 460.348 131.971 457.829C125.027 445.233 118.491 432.911 112.636 420.996C111.615 419.022 110.73 417.116 109.777 415.209C100.858 396.759 93.7092 379.534 89.2839 364.284C70.7656 330.856 76.5526 306.414 97.1133 287.487C98.8835 285.853 100.722 284.287 102.696 282.722L145.656 287.555L191.135 292.662C181.875 319.554 170.982 342.906 151.307 347.944C161.042 367.756 167.578 386.955 172.548 407.244C174.386 414.596 175.952 422.154 177.45 429.915C179.152 438.766 180.65 447.957 182.08 457.488C183.782 469.13 180.514 480.704 181.807 498.133C184.735 537.076 184.667 566.76 196.853 610.945C206.793 624.425 220.955 633.208 219.661 637.429Z" fill="#FFD391"/>
<path opacity="0.5" d="M182.081 457.624C168.328 466.679 152.874 469.471 136.194 465.454C134.764 462.867 133.334 460.279 131.904 457.76C129.862 459.531 127.888 461.369 125.981 463.207C113.386 460.756 103.174 455.514 95.889 448.161C101.54 438.017 106.646 428.417 112.637 420.928C111.616 418.954 110.731 417.047 109.778 415.141L116.382 416.571L165.196 427.055L177.451 429.711C179.153 438.561 180.651 447.752 182.081 457.284C182.081 457.42 182.081 457.556 182.081 457.624Z" fill="#FFD391"/>
<path d="M170.71 112.312C158.728 105.436 147.903 104.755 140.074 109.317L65.1833 152.821C57.49 157.247 52.6562 166.846 52.6562 180.462L52.52 226.146C52.4519 246.298 66.613 270.807 84.1782 280.952L99.2924 289.666L174.183 246.162L174.523 114.491L170.71 112.312Z" fill="#3B254A"/>
<path d="M219.796 409.286C209.72 429.779 190.521 441.149 169.212 445.574C159.884 447.48 150.149 448.161 140.549 447.616C110.184 445.982 81.8623 432.774 74.6456 414.188C93.1639 368.233 52.5189 330.992 92.8916 291.504L100.857 291.572L191.134 292.525C208.835 350.191 197.534 365.373 219.796 409.286Z" fill="#3A7D9E"/>
<path opacity="0.5" d="M140.686 447.616C110.253 445.982 81.8626 432.774 74.714 414.188C93.2323 368.233 52.5874 330.992 92.96 291.504L100.926 291.572L139.052 315.809C118.218 313.154 93.2323 326.022 90.7814 348.217C88.4666 405.405 98.4747 429.711 140.686 447.616Z" fill="#3A7D9E"/>
<path d="M162.268 130.967C158.455 149.553 175.408 176.99 186.233 210.486C191.339 231.183 203.322 254.944 222.385 278.296L233.346 275.437C224.291 248.204 221.636 229.413 211.696 205.925L204.683 150.915C201.756 120.754 174.455 110.542 162.268 130.967Z" fill="#FFD391"/>
<path d="M13.9171 307.912L6.90462 319.69L1.86655 330.787L0.913404 340.387C0.504912 342.566 2.41121 344.2 2.8197 341.544L1.11765 351.757C0.368748 354.684 3.02395 356.046 4.11326 353.459L7.92585 340.864L7.17695 360.403C7.10887 363.331 9.90023 365.033 10.8534 361.492L14.5979 341.681L15.2106 353.799L17.2531 362.786C18.3424 366.054 21.7465 366.326 21.7465 362.922L20.6572 351.28C20.6572 351.28 21.7465 343.178 22.4954 339.502C22.6316 338.889 27.1931 333.443 27.1931 333.443L36.4522 346.31C39.3117 349.101 42.1711 346.855 40.1967 343.11L33.1843 325.545C33.1843 325.545 28.0781 317.307 27.6016 316.558C27.1931 315.809 27.1931 315.809 27.1931 315.809L28.2824 309.137L15.8234 303.963L13.9171 307.912Z" fill="#FFD391"/>
<path d="M141.979 83.4454C113.248 80.2456 100.517 99.9213 97.5895 117.963C93.6407 142.132 98.6788 152.072 106.576 165.076C112.159 174.267 128.703 189.517 128.703 189.517C140.141 142.745 117.878 114.219 126.865 100.534C131.494 93.4535 141.911 90.0494 141.911 90.0494V83.4454H141.979Z" fill="black"/>
<path d="M187.527 239.149C184.395 257.599 185.212 275.437 191.135 292.525C188.889 304.235 182.148 312.746 166.558 315.197C133.061 320.439 105.692 309.41 92.8929 291.504C105.352 279.386 105.284 263.727 97.999 246.025C92.4844 236.153 88.808 225.465 86.7655 214.163C84.1784 200.138 84.0422 185.16 85.6762 169.365C100.11 155.544 110.118 142.268 131.223 130.694C134.219 129.06 137.419 127.495 140.891 125.929C145.316 123.954 149.537 122.525 153.554 121.639C175.136 116.533 190.114 124.635 190.114 124.635C199.577 134.779 203.322 146.081 200.054 158.676C199.645 160.378 199.033 162.148 198.352 163.85C198.692 173.45 200.599 181.007 202.913 187.611C206.794 198.845 211.696 207.082 211.628 217.295C211.56 230.298 202.709 238.468 187.527 239.149Z" fill="#EA4A49"/>
<path opacity="0.5" d="M191.135 292.525C188.888 304.235 182.148 312.746 166.557 315.128C133.061 320.371 105.76 309.342 92.8925 291.436C105.352 279.317 105.283 263.658 98.0667 245.957C92.5521 236.085 88.8757 225.396 86.8332 214.027H106.305C117.47 239.966 121.895 265.429 147.154 261.48C164.719 258.688 170.642 244.323 166.966 226.554C171.8 232.953 181.331 239.353 187.527 239.081C184.395 257.667 185.212 275.505 191.135 292.525Z" fill="#EA4A49"/>
<path d="M85.7431 169.365C69.5396 179.169 52.3148 208.24 35.0901 238.877C23.38 256.646 16.776 282.585 12.5549 312.474L25.3544 322.822C36.9283 297.087 47.7533 273.054 58.238 249.77L96.2277 214.095C110.389 205.38 109.027 164.395 85.7431 169.365Z" fill="#FFD391"/>
<path d="M222.588 278.568C220.614 283.13 218.639 287.555 216.801 291.844C215.167 298.312 212.376 304.099 209.108 309.75C208.018 313.903 210.129 314.039 214.078 311.861L222.316 299.742C224.63 301.716 226.264 305.052 227.558 309.137L225.311 327.792C225.924 331.4 227.354 331.06 229.124 329.017L232.392 312.133L232.664 330.243C233.958 331.74 234.979 331.264 235.864 328.813L236.953 323.571C237.838 325.477 238.792 325.137 239.745 323.162C239.745 323.162 240.425 301.308 240.425 300.967C240.425 300.627 233.277 275.505 233.277 275.505L230.554 270.126L219.66 273.122L222.588 278.568Z" fill="#FFD391"/>
<path d="M97.7944 273.462L88.4672 266.518C118.832 225.805 120.466 193.126 112.704 177.535C107.802 167.663 98.8156 162.489 86.8332 162.489V150.847C103.241 150.847 116.177 158.54 123.053 172.361C135.512 197.142 125.776 235.949 97.7944 273.462Z" fill="#3B254A"/>
<path d="M202.981 187.611C198.216 181.552 194.88 174.675 191.748 168.14C182.557 149.009 173.91 130.967 131.291 131.716L131.223 130.626L131.019 120.074C139.665 119.869 147.086 120.414 153.554 121.571C182.216 126.473 192.293 142.813 200.054 158.608C199.441 161.468 200.054 179.237 202.981 187.611Z" fill="#3B254A"/>
<path d="M119.104 143.834C124.959 134.303 127.274 125.588 128.499 114.423L161.655 118.099L160.566 141.792C172.004 176.514 121.827 165.961 119.104 143.834Z" fill="#FFD391"/>
<path opacity="0.5" d="M140.686 122.388C142.456 142.064 148.583 171.612 166.489 162.829C176.905 157.723 173.706 141.179 171.935 127.018L140.686 122.388Z" fill="#FFD391"/>
<path d="M127.682 120.55C109.981 88.756 120.329 61.7956 145.86 56.6213C173.842 50.9705 191.883 71.5313 191.203 95.8366C191.271 121.572 184.258 139.545 174.454 140.839C158.319 142.949 146.881 135.46 142.524 124.567L127.682 120.55Z" fill="#FFD391"/>
<path d="M126.866 124.635C131.087 125.997 135.444 123.41 136.193 119.12L137.623 111.087L147.835 114.219C151.307 115.308 155.12 114.423 157.775 111.904C170.098 100.33 182.829 87.8708 190.454 86.1007C189.842 67.1739 176.089 54.3064 153.213 53.8298C125.3 55.3276 115.973 71.3269 116.381 91.2749C116.585 103.734 121.419 114.763 126.866 124.635Z" fill="black"/>
<path d="M144.839 122.933C146.336 120.414 146.609 117.146 145.451 114.423C144.226 111.7 141.503 109.725 138.575 109.589C136.533 109.521 134.286 110.406 133.333 112.244C132.244 114.423 133.129 117.01 134.014 119.325C134.626 120.959 135.307 122.593 136.465 123.954C137.622 125.248 139.324 126.201 141.026 125.929C142.66 125.656 144.022 124.363 144.839 122.933Z" fill="#FFD391"/>
<path opacity="0.5" d="M154.575 334.6C152.601 367.892 157.298 402.546 172.276 427.6C162.2 415.073 153.349 396.963 146.269 375.585C149.809 400.503 157.298 425.489 169.213 445.506C190.454 441.012 209.653 429.711 219.798 409.218C183.51 430.596 161.724 382.325 154.575 334.6Z" fill="#3A7D9E"/>
</svg>
