<svg width="36" height="36" viewBox="0 0 36 36" fill="none" xmlns="http://www.w3.org/2000/svg">
<rect width="36" height="36" rx="18" fill="#C2C2C2"/>
<path d="M26.4436 12.5132C25.7825 12.8032 25.0781 12.9954 24.3436 13.0888C25.0992 12.6376 25.6758 11.9288 25.9469 11.0743C25.2425 11.4943 24.4647 11.791 23.6358 11.9565C22.967 11.2443 22.0136 10.8032 20.9737 10.8032C18.9559 10.8032 17.3315 12.441 17.3315 14.4487C17.3315 14.7376 17.3559 15.0154 17.4159 15.2798C14.386 15.1321 11.7049 13.6799 9.90378 11.4677C9.58934 12.0132 9.4049 12.6376 9.4049 13.3099C9.4049 14.5721 10.0549 15.6909 11.0238 16.3387C10.4382 16.3276 9.86378 16.1576 9.37712 15.8898C9.37712 15.9009 9.37712 15.9154 9.37712 15.9298C9.37712 17.7009 10.6404 19.172 12.2971 19.5109C12.0004 19.592 11.6771 19.6309 11.3415 19.6309C11.1082 19.6309 10.8727 19.6176 10.6515 19.5687C11.1238 21.012 12.4638 22.0731 14.0571 22.1075C12.8171 23.0775 11.2427 23.662 9.53823 23.662C9.23934 23.662 8.95268 23.6486 8.66602 23.612C10.2804 24.6531 12.1938 25.2475 14.2571 25.2475C20.9637 25.2475 24.6303 19.692 24.6303 14.8765C24.6303 14.7154 24.6247 14.5598 24.6169 14.4054C25.3403 13.8921 25.948 13.251 26.4436 12.5132Z" fill="white"/>
</svg>
