<svg width="36" height="36" viewBox="0 0 36 36" fill="none" xmlns="http://www.w3.org/2000/svg">
<rect width="36" height="36" rx="18" fill="#FFCF83"/>
<path d="M26.4442 12.5132C25.7831 12.8032 25.0787 12.9954 24.3442 13.0888C25.0998 12.6376 25.6764 11.9288 25.9475 11.0743C25.2431 11.4943 24.4653 11.791 23.6365 11.9565C22.9676 11.2443 22.0143 10.8032 20.9743 10.8032C18.9565 10.8032 17.3321 12.441 17.3321 14.4487C17.3321 14.7376 17.3565 15.0154 17.4165 15.2798C14.3866 15.1321 11.7055 13.6799 9.90439 11.4677C9.58995 12.0132 9.40551 12.6376 9.40551 13.3099C9.40551 14.5721 10.0555 15.6909 11.0244 16.3387C10.4388 16.3276 9.86439 16.1576 9.37773 15.8898C9.37773 15.9009 9.37773 15.9154 9.37773 15.9298C9.37773 17.7009 10.641 19.172 12.2977 19.5109C12.001 19.592 11.6777 19.6309 11.3422 19.6309C11.1088 19.6309 10.8733 19.6176 10.6522 19.5687C11.1244 21.012 12.4644 22.0731 14.0577 22.1075C12.8177 23.0775 11.2433 23.662 9.53884 23.662C9.23995 23.662 8.95329 23.6486 8.66663 23.612C10.2811 24.6531 12.1944 25.2475 14.2577 25.2475C20.9643 25.2475 24.6309 19.692 24.6309 14.8765C24.6309 14.7154 24.6253 14.5598 24.6176 14.4054C25.3409 13.8921 25.9487 13.251 26.4442 12.5132Z" fill="white"/>
</svg>
